<svg width="512" height="316" viewBox="0 0 512 316" fill="none" xmlns="http://www.w3.org/2000/svg">
<path opacity="0.49" d="M392.016 113.542C288.127 113.918 224.76 64.9248 175.33 55.4978C101.058 41.3431 3.10416 77.9738 66.2741 179.311C129.444 280.649 162.181 306.423 275.922 315.068C366.976 321.988 447.183 282.336 479.093 250.69C529.113 201.182 495.944 113.165 392.016 113.542Z" fill="url(#paint0_linear)"/>
<path d="M15 216.435V180.685L96.8789 63.5896H146.369V178.094H167.616V216.435H146.369V250.113H102.061V216.435H15ZM105.17 112.293L61.6399 178.094H105.17V112.293Z" fill="#1ABC9C"/>
<path d="M189.319 152.965C189.319 123.26 195.019 99.858 206.42 82.76C217.993 65.662 236.563 57.113 262.129 57.113C287.694 57.113 306.177 65.662 317.578 82.76C329.152 99.858 334.939 123.26 334.939 152.965C334.939 183.016 329.152 206.591 317.578 223.689C306.177 240.787 287.694 249.336 262.129 249.336C236.563 249.336 217.993 240.787 206.42 223.689C195.019 206.591 189.319 183.016 189.319 152.965ZM291.408 152.965C291.408 135.522 289.508 122.137 285.708 112.811C281.907 103.312 274.048 98.5627 262.129 98.5627C250.209 98.5627 242.35 103.312 238.549 112.811C234.749 122.137 232.849 135.522 232.849 152.965C232.849 164.709 233.54 174.467 234.922 182.239C236.304 189.838 239.068 196.056 243.213 200.892C247.532 205.555 253.837 207.886 262.129 207.886C270.42 207.886 276.639 205.555 280.785 200.892C285.103 196.056 287.953 189.838 289.335 182.239C290.717 174.467 291.408 164.709 291.408 152.965Z" fill="#1ABC9C"/>
<path d="M359.384 216.435V180.685L441.263 63.5896H490.753V178.094H512V216.435H490.753V250.113H446.445V216.435H359.384ZM449.554 112.293L406.024 178.094H449.554V112.293Z" fill="#1ABC9C"/>
<path d="M485.563 0.0100098H445.129C443.664 0.0100098 442.258 0.638543 441.222 1.75733C440.186 2.87611 439.604 4.39351 439.604 5.97571V32.8359C439.604 34.4181 440.186 35.9355 441.222 37.0542C442.258 38.173 443.664 38.8016 445.129 38.8016H453.944L462.26 51.0822H465.346L476.721 38.8016H485.563C487.028 38.8016 488.434 38.173 489.47 37.0542C490.506 35.9355 491.089 34.4181 491.089 32.8359V5.96114C491.085 4.38147 490.501 2.86781 489.465 1.75218C488.429 0.636537 487.026 0.0100051 485.563 0.0100098Z" fill="url(#paint1_linear)"/>
<path d="M482.443 0.0100098H441.967C440.5 0.0100098 439.093 0.638543 438.056 1.75733C437.018 2.87611 436.436 4.39351 436.436 5.97571V32.8359C436.436 34.4181 437.018 35.9355 438.056 37.0542C439.093 38.173 440.5 38.8016 441.967 38.8016H450.791L462.178 51.0822L473.565 38.8016H482.389C483.856 38.8016 485.263 38.173 486.3 37.0542C487.338 35.9355 487.921 34.4181 487.921 32.8359V5.96114C487.917 4.3915 487.34 2.88659 486.315 1.7726C485.29 0.658614 483.898 0.0253189 482.443 0.0100098Z" fill="url(#paint2_linear)"/>
<path d="M463.366 54.1513C463.366 54.1513 429.389 74.4486 409.344 67.3338C389.299 60.219 406.047 45.975 417.418 45.975C428.788 45.975 435.407 85.9815 435.407 85.9815" stroke="#222222" stroke-width="0.5" stroke-linecap="round" stroke-linejoin="round" stroke-dasharray="3 3"/>
<path d="M415.842 73.2134C418.467 73.2134 420.595 70.7363 420.595 67.6806C420.595 64.6249 418.467 62.1478 415.842 62.1478C413.218 62.1478 411.09 64.6249 411.09 67.6806C411.09 70.7363 413.218 73.2134 415.842 73.2134Z" fill="#FFD46A"/>
<path d="M5.52511 24.6349H45.9585C47.424 24.6349 48.8296 25.2634 49.8659 26.3822C50.9022 27.501 51.4844 29.0184 51.4844 30.6006V57.4608C51.4844 59.043 50.9022 60.5604 49.8659 61.6792C48.8296 62.7979 47.424 63.4265 45.9585 63.4265H37.144L28.8282 75.7071H25.7418L14.3665 63.4265H5.52511C4.05955 63.4265 2.65402 62.7979 1.61771 61.6792C0.581406 60.5604 -0.000789642 59.043 -0.000789642 57.4608V30.586C0.0027771 29.0064 0.586563 27.4927 1.62248 26.3771C2.6584 25.2614 4.06189 24.6349 5.52511 24.6349Z" fill="url(#paint3_linear)"/>
<path d="M8.6469 24.6349H49.1226C50.5897 24.6349 51.9967 25.2634 53.0341 26.3822C54.0715 27.501 54.6543 29.0184 54.6543 30.6006V57.4608C54.6543 59.043 54.0715 60.5604 53.0341 61.6792C51.9967 62.7979 50.5897 63.4265 49.1226 63.4265H40.2989L28.9117 75.7071L17.5246 63.4265H8.70088C7.23378 63.4265 5.82678 62.7979 4.78939 61.6792C3.752 60.5604 3.16919 59.043 3.16919 57.4608V30.586C3.17267 29.0164 3.74961 27.5115 4.77497 26.3975C5.80034 25.2835 7.19151 24.6502 8.6469 24.6349Z" fill="url(#paint4_linear)"/>
<path d="M37 74.6132L36.9539 74.3674L37 74.6132ZM28.2501 61.6218C28.2659 62.0777 28.2971 62.5729 28.346 63.0951L28.8439 63.0485C28.7958 62.5357 28.7652 62.0503 28.7499 61.6045L28.2501 61.6218ZM28.7756 66.0127C28.9684 66.965 29.2197 67.9349 29.5397 68.8676L30.0126 68.7054C29.7009 67.7967 29.4549 66.8482 29.2657 65.9135L28.7756 66.0127ZM30.7608 71.5757C31.2965 72.4797 31.9385 73.2714 32.7048 73.8627L33.0102 73.4669C32.3069 72.9241 31.7038 72.1863 31.191 71.3208L30.7608 71.5757ZM35.5241 74.9549C36.005 74.9888 36.5121 74.959 37.0461 74.8589L36.9539 74.3674C36.4589 74.4603 35.9947 74.4868 35.5592 74.4562L35.5241 74.9549ZM37.0461 74.8589C37.6776 74.7405 38.2172 74.5829 38.6731 74.3928L38.4807 73.9313C38.0629 74.1055 37.5579 74.2542 36.9539 74.3674L37.0461 74.8589ZM40.7175 71.7603C40.6749 70.6726 39.9325 69.5909 38.9851 68.852L38.6776 69.2462C39.56 69.9345 40.1831 70.8936 40.2179 71.7799L40.7175 71.7603ZM35.7296 67.9293C35.1712 68.0711 34.6703 68.4071 34.292 68.9745L34.708 69.2518C35.019 68.7854 35.4165 68.5247 35.8527 68.4139L35.7296 67.9293ZM34.292 68.9745C34.0403 69.352 33.8327 69.7534 33.6675 70.1735L34.1328 70.3564C34.2854 69.9683 34.4767 69.5987 34.708 69.2518L34.292 68.9745ZM33.1743 72.8055C33.1642 73.6661 33.2839 74.5556 33.5234 75.4446L34.0062 75.3146C33.7775 74.4655 33.6647 73.6219 33.6743 72.8114L33.1743 72.8055ZM34.4997 77.9109C34.9011 78.6733 35.3895 79.4159 35.9589 80.119L36.3474 79.8043C35.7983 79.1263 35.3281 78.411 34.9421 77.678L34.4997 77.9109ZM37.8081 82.0092C38.1415 82.2919 38.4912 82.5622 38.8566 82.818L39.1434 82.4084C38.7907 82.1615 38.4532 81.9007 38.1315 81.6279L37.8081 82.0092ZM38.8566 82.818C39.2545 83.0965 39.7258 83.3142 40.2512 83.4872L40.4076 83.0123C39.9144 82.8499 39.4906 82.6514 39.1434 82.4084L38.8566 82.818ZM43.217 84.0496C44.1474 84.1453 45.1517 84.2028 46.1919 84.2541L46.2166 83.7547C45.1771 83.7035 44.1843 83.6465 43.2682 83.5522L43.217 84.0496ZM49.155 84.406C50.1382 84.467 51.1267 84.5469 52.0967 84.6694L52.1594 84.1733C51.1749 84.0491 50.1749 83.9683 49.1859 83.907L49.155 84.406ZM54.9837 85.2023C55.9567 85.4531 56.8751 85.7794 57.7102 86.2089L57.9388 85.7643C57.0634 85.314 56.1085 84.9759 55.1085 84.7181L54.9837 85.2023ZM60.0142 87.9159C60.6361 88.5806 61.1513 89.3768 61.5298 90.3345L61.9948 90.1508C61.5934 89.1351 61.0446 88.2853 60.3793 87.5743L60.0142 87.9159ZM62.1807 93.1491C62.2263 93.6109 62.25 94.0984 62.25 94.6132H62.75C62.75 94.0832 62.7256 93.5792 62.6783 93.0999L62.1807 93.1491Z" fill="black"/>
<path d="M44.7534 108.776C42.1287 108.776 40.0009 106.299 40.0009 103.243C40.0009 100.188 42.1287 97.7106 44.7534 97.7106C47.3781 97.7106 49.5059 100.188 49.5059 103.243C49.5059 106.299 47.3781 108.776 44.7534 108.776Z" fill="#FFD46A"/>
<defs>
<linearGradient id="paint0_linear" x1="107.712" y1="150.805" x2="561.547" y2="458.35" gradientUnits="userSpaceOnUse">
<stop stop-color="#EAF1FC"/>
<stop offset="1" stop-color="#C0D4F4"/>
</linearGradient>
<linearGradient id="paint1_linear" x1="14282.9" y1="7841.63" x2="16248.6" y2="7841.63" gradientUnits="userSpaceOnUse">
<stop stop-color="#223762"/>
<stop offset="1" stop-color="#041B48"/>
</linearGradient>
<linearGradient id="paint2_linear" x1="14163.4" y1="7841.63" x2="16128.6" y2="7841.63" gradientUnits="userSpaceOnUse">
<stop stop-color="#7ECA9C"/>
<stop offset="1" stop-color="#0B63DA"/>
</linearGradient>
<linearGradient id="paint3_linear" x1="-13791.8" y1="7866.26" x2="-15757.6" y2="7866.26" gradientUnits="userSpaceOnUse">
<stop stop-color="#223762"/>
<stop offset="1" stop-color="#041B48"/>
</linearGradient>
<linearGradient id="paint4_linear" x1="-13672.3" y1="7866.26" x2="-15637.5" y2="7866.26" gradientUnits="userSpaceOnUse">
<stop stop-color="#7ECA9C"/>
<stop offset="1" stop-color="#0B63DA"/>
</linearGradient>
</defs>
</svg>
