<svg width="55" height="55" viewBox="0 0 55 55" fill="none" xmlns="http://www.w3.org/2000/svg">
<circle cx="27.5" cy="27.5" r="27.5" fill="#1ABC9C"/>
<g clip-path="url(#clip0)">
<path d="M31.8337 43.8335C31.8337 46.1652 29.8934 47.0002 27.5003 47.0002C25.1072 47.0002 23.167 46.1652 23.167 43.8335L24.2503 34.3335C24.2503 32.0018 25.1072 32.2224 27.5003 32.2224C29.8934 32.2224 30.7503 32.0018 30.7503 34.3335L31.8337 43.8335Z" fill="#662113"/>
<path d="M44.8337 26.9444C44.8337 36.2724 37.0737 39.6111 27.5003 39.6111C17.928 39.6111 10.167 36.2724 10.167 26.9444C10.167 17.6176 19.917 9 27.5003 9C35.0837 9 44.8337 17.6176 44.8337 26.9444Z" fill="#5C913B"/>
<path d="M14.4997 32.2224C15.6963 32.2224 16.6663 31.7498 16.6663 31.1669C16.6663 30.5839 15.6963 30.1113 14.4997 30.1113C13.3031 30.1113 12.333 30.5839 12.333 31.1669C12.333 31.7498 13.3031 32.2224 14.4997 32.2224Z" fill="#3E721D"/>
<path d="M40.4997 32.2224C41.6963 32.2224 42.6663 31.7498 42.6663 31.1669C42.6663 30.5839 41.6963 30.1113 40.4997 30.1113C39.3031 30.1113 38.333 30.5839 38.333 31.1669C38.333 31.7498 39.3031 32.2224 40.4997 32.2224Z" fill="#3E721D"/>
<path d="M18.8327 36.4446C20.0293 36.4446 20.9993 35.972 20.9993 35.3891C20.9993 34.8061 20.0293 34.3335 18.8327 34.3335C17.6361 34.3335 16.666 34.8061 16.666 35.3891C16.666 35.972 17.6361 36.4446 18.8327 36.4446Z" fill="#3E721D"/>
<path d="M23.1667 33.2776C24.3633 33.2776 25.3333 32.805 25.3333 32.2221C25.3333 31.6391 24.3633 31.1665 23.1667 31.1665C21.97 31.1665 21 31.6391 21 32.2221C21 32.805 21.97 33.2776 23.1667 33.2776Z" fill="#3E721D"/>
<path d="M18.8327 26.9446C20.0293 26.9446 20.9993 26.472 20.9993 25.8891C20.9993 25.3061 20.0293 24.8335 18.8327 24.8335C17.6361 24.8335 16.666 25.3061 16.666 25.8891C16.666 26.472 17.6361 26.9446 18.8327 26.9446Z" fill="#3E721D"/>
<path d="M15.5827 22.7224C16.7793 22.7224 17.7493 22.2499 17.7493 21.6669C17.7493 21.0839 16.7793 20.6113 15.5827 20.6113C14.3861 20.6113 13.416 21.0839 13.416 21.6669C13.416 22.2499 14.3861 22.7224 15.5827 22.7224Z" fill="#3E721D"/>
<path d="M39.4167 22.7224C40.6133 22.7224 41.5833 22.2499 41.5833 21.6669C41.5833 21.0839 40.6133 20.6113 39.4167 20.6113C38.22 20.6113 37.25 21.0839 37.25 21.6669C37.25 22.2499 38.22 22.7224 39.4167 22.7224Z" fill="#3E721D"/>
<path d="M23.1667 20.6111C24.3633 20.6111 25.3333 20.1385 25.3333 19.5556C25.3333 18.9726 24.3633 18.5 23.1667 18.5C21.97 18.5 21 18.9726 21 19.5556C21 20.1385 21.97 20.6111 23.1667 20.6111Z" fill="#3E721D"/>
<path d="M31.8327 20.6111C33.0293 20.6111 33.9993 20.1385 33.9993 19.5556C33.9993 18.9726 33.0293 18.5 31.8327 18.5C30.6361 18.5 29.666 18.9726 29.666 19.5556C29.666 20.1385 30.6361 20.6111 31.8327 20.6111Z" fill="#3E721D"/>
<path d="M36.1667 26.9446C37.3633 26.9446 38.3333 26.472 38.3333 25.8891C38.3333 25.3061 37.3633 24.8335 36.1667 24.8335C34.97 24.8335 34 25.3061 34 25.8891C34 26.472 34.97 26.9446 36.1667 26.9446Z" fill="#3E721D"/>
<path d="M27.4997 27.9998C28.6963 27.9998 29.6663 27.5272 29.6663 26.9442C29.6663 26.3613 28.6963 25.8887 27.4997 25.8887C26.3031 25.8887 25.333 26.3613 25.333 26.9442C25.333 27.5272 26.3031 27.9998 27.4997 27.9998Z" fill="#3E721D"/>
<path d="M31.8327 33.2776C33.0293 33.2776 33.9993 32.805 33.9993 32.2221C33.9993 31.6391 33.0293 31.1665 31.8327 31.1665C30.6361 31.1665 29.666 31.6391 29.666 32.2221C29.666 32.805 30.6361 33.2776 31.8327 33.2776Z" fill="#3E721D"/>
<path d="M27.4997 37.4998C28.6963 37.4998 29.6663 37.0272 29.6663 36.4442C29.6663 35.8613 28.6963 35.3887 27.4997 35.3887C26.3031 35.3887 25.333 35.8613 25.333 36.4442C25.333 37.0272 26.3031 37.4998 27.4997 37.4998Z" fill="#3E721D"/>
<path d="M36.1667 36.4446C37.3633 36.4446 38.3333 35.972 38.3333 35.3891C38.3333 34.8061 37.3633 34.3335 36.1667 34.3335C34.97 34.3335 34 34.8061 34 35.3891C34 35.972 34.97 36.4446 36.1667 36.4446Z" fill="#3E721D"/>
</g>
<defs>
<clipPath id="clip0">
<rect width="39" height="38" fill="white" transform="translate(8 9)"/>
</clipPath>
</defs>
</svg>
