<svg width="182" height="55" viewBox="0 0 182 55" fill="none" xmlns="http://www.w3.org/2000/svg">
<circle cx="27.5" cy="27.5" r="27.5" fill="#1ABC9C"/>
<g clip-path="url(#clip0)">
<path d="M31 42C31 44.209 29.209 45 27 45C24.791 45 23 44.209 23 42L24 33C24 30.791 24.791 31 27 31C29.209 31 30 30.791 30 33L31 42Z" fill="#662113"/>
<path d="M43 26C43 34.837 35.837 38 27 38C18.164 38 11 34.837 11 26C11 17.164 20 9 27 9C34 9 43 17.164 43 26Z" fill="#5C913B"/>
<path d="M15 31C16.1046 31 17 30.5523 17 30C17 29.4477 16.1046 29 15 29C13.8954 29 13 29.4477 13 30C13 30.5523 13.8954 31 15 31Z" fill="#3E721D"/>
<path d="M39 31C40.1046 31 41 30.5523 41 30C41 29.4477 40.1046 29 39 29C37.8954 29 37 29.4477 37 30C37 30.5523 37.8954 31 39 31Z" fill="#3E721D"/>
<path d="M19 35C20.1046 35 21 34.5523 21 34C21 33.4477 20.1046 33 19 33C17.8954 33 17 33.4477 17 34C17 34.5523 17.8954 35 19 35Z" fill="#3E721D"/>
<path d="M23 32C24.1046 32 25 31.5523 25 31C25 30.4477 24.1046 30 23 30C21.8954 30 21 30.4477 21 31C21 31.5523 21.8954 32 23 32Z" fill="#3E721D"/>
<path d="M19 26C20.1046 26 21 25.5523 21 25C21 24.4477 20.1046 24 19 24C17.8954 24 17 24.4477 17 25C17 25.5523 17.8954 26 19 26Z" fill="#3E721D"/>
<path d="M16 22C17.1046 22 18 21.5523 18 21C18 20.4477 17.1046 20 16 20C14.8954 20 14 20.4477 14 21C14 21.5523 14.8954 22 16 22Z" fill="#3E721D"/>
<path d="M38 22C39.1046 22 40 21.5523 40 21C40 20.4477 39.1046 20 38 20C36.8954 20 36 20.4477 36 21C36 21.5523 36.8954 22 38 22Z" fill="#3E721D"/>
<path d="M23 20C24.1046 20 25 19.5523 25 19C25 18.4477 24.1046 18 23 18C21.8954 18 21 18.4477 21 19C21 19.5523 21.8954 20 23 20Z" fill="#3E721D"/>
<path d="M31 20C32.1046 20 33 19.5523 33 19C33 18.4477 32.1046 18 31 18C29.8954 18 29 18.4477 29 19C29 19.5523 29.8954 20 31 20Z" fill="#3E721D"/>
<path d="M35 26C36.1046 26 37 25.5523 37 25C37 24.4477 36.1046 24 35 24C33.8954 24 33 24.4477 33 25C33 25.5523 33.8954 26 35 26Z" fill="#3E721D"/>
<path d="M27 27C28.1046 27 29 26.5523 29 26C29 25.4477 28.1046 25 27 25C25.8954 25 25 25.4477 25 26C25 26.5523 25.8954 27 27 27Z" fill="#3E721D"/>
<path d="M31 32C32.1046 32 33 31.5523 33 31C33 30.4477 32.1046 30 31 30C29.8954 30 29 30.4477 29 31C29 31.5523 29.8954 32 31 32Z" fill="#3E721D"/>
<path d="M27 36C28.1046 36 29 35.5523 29 35C29 34.4477 28.1046 34 27 34C25.8954 34 25 34.4477 25 35C25 35.5523 25.8954 36 27 36Z" fill="#3E721D"/>
<path d="M35 35C36.1046 35 37 34.5523 37 34C37 33.4477 36.1046 33 35 33C33.8954 33 33 33.4477 33 34C33 34.5523 33.8954 35 35 35Z" fill="#3E721D"/>
</g>
<path d="M100.028 24.468C100.028 25.4387 99.794 26.3487 99.326 27.198C98.8753 28.0473 98.156 28.732 97.168 29.252C96.1973 29.772 94.9667 30.032 93.476 30.032H90.434V37H86.794V18.852H93.476C94.88 18.852 96.076 19.0947 97.064 19.58C98.052 20.0653 98.7887 20.7327 99.274 21.582C99.7767 22.4313 100.028 23.3933 100.028 24.468ZM93.32 27.094C94.3253 27.094 95.0707 26.8687 95.556 26.418C96.0413 25.95 96.284 25.3 96.284 24.468C96.284 22.7 95.296 21.816 93.32 21.816H90.434V27.094H93.32ZM115.846 24.468C115.846 25.4387 115.612 26.3487 115.144 27.198C114.694 28.0473 113.974 28.732 112.986 29.252C112.016 29.772 110.785 30.032 109.294 30.032H106.252V37H102.612V18.852H109.294C110.698 18.852 111.894 19.0947 112.882 19.58C113.87 20.0653 114.607 20.7327 115.092 21.582C115.595 22.4313 115.846 23.3933 115.846 24.468ZM109.138 27.094C110.144 27.094 110.889 26.8687 111.374 26.418C111.86 25.95 112.102 25.3 112.102 24.468C112.102 22.7 111.114 21.816 109.138 21.816H106.252V27.094H109.138ZM122.071 34.114H128.051V37H118.431V18.852H122.071V34.114ZM140.2 18.852V37H136.56V18.852H140.2ZM151.778 22.388C153.494 22.388 154.881 22.934 155.938 24.026C156.995 25.1007 157.524 26.6087 157.524 28.55V37H153.884V29.044C153.884 27.9 153.598 27.0247 153.026 26.418C152.454 25.794 151.674 25.482 150.686 25.482C149.681 25.482 148.883 25.794 148.294 26.418C147.722 27.0247 147.436 27.9 147.436 29.044V37H143.796V22.596H147.436V24.39C147.921 23.766 148.537 23.2807 149.282 22.934C150.045 22.57 150.877 22.388 151.778 22.388ZM160.049 29.798C160.049 28.3073 160.353 27.0073 160.959 25.898C161.566 24.7713 162.407 23.9047 163.481 23.298C164.556 22.674 165.787 22.362 167.173 22.362C168.959 22.362 170.432 22.8127 171.593 23.714C172.772 24.598 173.561 25.846 173.959 27.458H170.033C169.825 26.834 169.47 26.3487 168.967 26.002C168.482 25.638 167.875 25.456 167.147 25.456C166.107 25.456 165.284 25.8373 164.677 26.6C164.071 27.3453 163.767 28.4113 163.767 29.798C163.767 31.1673 164.071 32.2333 164.677 32.996C165.284 33.7413 166.107 34.114 167.147 34.114C168.621 34.114 169.583 33.4553 170.033 32.138H173.959C173.561 33.698 172.772 34.9373 171.593 35.856C170.415 36.7747 168.941 37.234 167.173 37.234C165.787 37.234 164.556 36.9307 163.481 36.324C162.407 35.7 161.566 34.8333 160.959 33.724C160.353 32.5973 160.049 31.2887 160.049 29.798ZM178.238 37.182C177.579 37.182 177.033 36.9827 176.6 36.584C176.184 36.168 175.976 35.6567 175.976 35.05C175.976 34.4433 176.184 33.9407 176.6 33.542C177.033 33.126 177.579 32.918 178.238 32.918C178.879 32.918 179.408 33.126 179.824 33.542C180.24 33.9407 180.448 34.4433 180.448 35.05C180.448 35.6567 180.24 36.168 179.824 36.584C179.408 36.9827 178.879 37.182 178.238 37.182Z" fill="white"/>
<defs>
<clipPath id="clip0">
<rect width="36" height="36" fill="white" transform="translate(9 9)"/>
</clipPath>
</defs>
</svg>
