<svg width="484" height="491" viewBox="0 0 484 491" fill="none" xmlns="http://www.w3.org/2000/svg">
<path d="M407.074 265.691L322.361 235.736C320.97 235.244 319.695 234.5 318.611 233.547C317.527 232.594 316.654 231.451 316.043 230.182C315.432 228.914 315.094 227.545 315.049 226.154C315.004 224.763 315.252 223.378 315.78 222.077L360.111 112.433C361.174 109.804 363.31 107.678 366.049 106.522C368.788 105.366 371.906 105.274 374.717 106.268L428.448 125.264L453.816 180.054L421.68 259.569C420.608 262.19 418.469 264.306 415.731 265.454C412.993 266.601 409.88 266.686 407.074 265.691Z" fill="#F5F5F5"/>
<path d="M428.447 125.264L415.961 156.123C415.47 157.334 415.24 158.623 415.282 159.917C415.325 161.211 415.639 162.485 416.208 163.665C416.777 164.846 417.589 165.91 418.598 166.797C419.607 167.684 420.793 168.376 422.088 168.834L453.816 180.054L428.447 125.264Z" fill="#EBEBEB"/>
<path d="M415.297 158.988C415.297 158.988 411.861 166.329 419.956 172.059C420.261 172.272 420.58 172.469 420.911 172.647C424.778 174.825 450.216 188.986 450.449 188.408L453.804 180.108L422.076 168.889C422.076 168.889 414.272 165.784 415.297 158.988Z" fill="#E0E0E0"/>
<path d="M409.368 152.354C409.205 152.757 400.307 149.968 389.486 146.145C378.665 142.322 370.023 138.891 370.186 138.52C370.349 138.15 379.248 140.906 390.068 144.729C400.889 148.552 409.532 151.929 409.368 152.354Z" fill="#E0E0E0"/>
<path d="M427.621 178.758C427.458 179.15 412.899 174.4 395.089 168.072C377.28 161.743 362.965 156.341 363.128 155.938C363.291 155.535 377.851 160.295 395.672 166.634C413.493 172.974 427.749 178.354 427.621 178.758Z" fill="#E0E0E0"/>
<path d="M427.539 195.38C427.376 195.772 411.512 190.532 392.095 183.659C372.678 176.786 357.071 170.904 357.234 170.512C357.397 170.12 373.261 175.359 392.677 182.232C412.094 189.105 427.748 194.977 427.539 195.38Z" fill="#E0E0E0"/>
<path d="M421.984 209.126C421.821 209.518 405.957 204.279 386.54 197.406C367.124 190.532 351.516 184.607 351.679 184.258C351.842 183.91 367.706 189.105 387.123 195.968C406.539 202.83 422.147 208.723 421.984 209.126Z" fill="#E0E0E0"/>
<path d="M416.427 222.872C416.264 223.264 400.388 218.025 380.983 211.152C361.579 204.279 345.959 198.397 346.11 198.005C346.262 197.612 362.138 202.852 381.566 209.714C400.994 216.576 416.579 222.469 416.427 222.872Z" fill="#E0E0E0"/>
<path d="M410.859 236.619C410.708 237.011 394.832 231.76 375.427 224.898C356.022 218.036 340.391 212.143 340.554 211.751C340.717 211.359 356.581 216.598 375.998 223.46C395.414 230.323 411.022 236.216 410.859 236.619Z" fill="#E0E0E0"/>
<path d="M124.639 151.861L12.9603 188.434C9.09898 189.699 7.06494 193.651 8.41716 197.262L64.4497 346.893C65.8019 350.505 70.0283 352.407 73.8896 351.142L185.568 314.568C189.429 313.304 191.463 309.351 190.111 305.74L134.079 156.109C132.726 152.498 128.5 150.596 124.639 151.861Z" fill="#EBEBEB"/>
<path d="M126.07 161.161L18.041 196.54L73.5769 344.845L181.605 309.466L126.07 161.161Z" fill="#E0E0E0"/>
<path d="M124.138 160.463L16.1094 195.842L70.5866 341.32L178.615 305.941L124.138 160.463Z" fill="#FAFAFA"/>
<path d="M178.595 305.939L123.979 160.512L124.177 160.6L16.1688 195.989L16.2736 195.793C36.6337 250.43 55.5843 300.895 70.7146 341.274L70.5399 341.198L178.607 305.939L70.6214 341.459H70.4933V341.339C55.3514 300.961 36.4589 250.496 15.9824 195.87V195.717H16.1338L124.154 160.36H124.305V160.491L178.595 305.939Z" fill="#E0E0E0"/>
<path d="M140.285 318.487C140.285 318.487 164.337 299.512 168.507 279.753C166.094 282.885 163.027 285.528 159.492 287.521C155.956 289.515 152.026 290.819 147.938 291.353C147.938 291.353 147.46 312.049 140.285 318.487Z" fill="#E0E0E0"/>
<path d="M53.027 228.258L47.3436 230.119C45.2672 230.799 44.1734 232.925 44.9006 234.866L46.8909 240.181C47.618 242.123 49.8907 243.146 51.9671 242.466L57.6505 240.605C59.7269 239.925 60.8207 237.799 60.0935 235.858L58.1032 230.543C57.3761 228.601 55.1034 227.578 53.027 228.258Z" fill="#EBEBEB"/>
<path d="M52.3353 237.414C52.2957 237.433 52.2518 237.443 52.2072 237.443C52.1626 237.443 52.1187 237.433 52.0791 237.414L49.47 235.998C49.4068 235.953 49.3634 235.887 49.348 235.814C49.3326 235.741 49.3462 235.666 49.3862 235.602C49.4263 235.537 49.4901 235.489 49.5655 235.466C49.641 235.442 49.723 235.446 49.7961 235.475L52.1257 236.717L54.8745 231.27C54.9146 231.198 54.9822 231.142 55.0641 231.114C55.1461 231.085 55.2363 231.087 55.3171 231.118C55.3566 231.135 55.3919 231.16 55.4209 231.19C55.45 231.221 55.4722 231.256 55.4864 231.295C55.5005 231.333 55.5062 231.374 55.5031 231.415C55.5001 231.456 55.4883 231.495 55.4685 231.532L52.5683 237.327C52.5384 237.356 52.5021 237.379 52.4619 237.394C52.4217 237.409 52.3786 237.416 52.3353 237.414Z" fill="white"/>
<path d="M126.925 205.738C126.925 205.825 112.948 210.498 95.6048 216.173C78.2615 221.848 64.1562 226.38 64.1562 226.303C64.1562 226.227 78.1334 221.543 95.4884 215.868C112.843 210.193 126.902 205.662 126.925 205.738Z" fill="#E0E0E0"/>
<path d="M93.9854 226.674C93.9854 226.674 93.6243 226.826 92.972 227.066L90.1533 228.046C87.8238 228.852 84.4693 229.952 80.8352 231.151C77.2012 232.349 73.8466 233.416 71.5171 234.168L68.6634 235.05C68.318 235.169 67.9638 235.263 67.6035 235.333C67.9292 235.174 68.2681 235.039 68.6169 234.93L71.4356 233.961C73.7651 233.144 77.1196 232.044 80.7537 230.846C84.3877 229.647 87.7422 228.591 90.0718 227.828L92.9254 226.946C93.2697 226.827 93.6243 226.736 93.9854 226.674Z" fill="#E0E0E0"/>
<path d="M128.406 209.747C128.406 209.823 114.429 214.496 97.0736 220.171C79.7186 225.846 65.625 230.388 65.625 230.301C65.625 230.214 79.6022 225.552 96.9688 219.877C114.335 214.202 128.406 209.66 128.406 209.747Z" fill="#E0E0E0"/>
<path d="M61.1403 249.932L55.4569 251.793C53.3805 252.473 52.2867 254.599 53.0139 256.54L55.0042 261.855C55.7313 263.797 58.004 264.82 60.0804 264.14L65.7638 262.279C67.8402 261.599 68.9339 259.473 68.2068 257.531L66.2165 252.217C65.4894 250.275 63.2167 249.252 61.1403 249.932Z" fill="#EBEBEB"/>
<path d="M60.4533 259.09C60.4116 259.109 60.3658 259.119 60.3193 259.119C60.2729 259.119 60.227 259.109 60.1854 259.09L57.5879 257.674C57.5503 257.655 57.5172 257.629 57.4908 257.597C57.4644 257.566 57.4451 257.529 57.4342 257.491C57.4233 257.452 57.421 257.411 57.4274 257.372C57.4338 257.332 57.4488 257.294 57.4715 257.26C57.492 257.225 57.5199 257.194 57.5537 257.169C57.5874 257.144 57.6262 257.126 57.6676 257.116C57.7091 257.106 57.7523 257.104 57.7947 257.11C57.8371 257.116 57.8777 257.13 57.9141 257.151L60.2436 258.393L62.9924 252.892C63.0303 252.82 63.0958 252.765 63.1758 252.737C63.2558 252.708 63.3443 252.709 63.4234 252.74C63.5021 252.773 63.5635 252.834 63.5941 252.91C63.6246 252.985 63.6219 253.069 63.5865 253.143L60.6862 258.948C60.6603 258.986 60.6262 259.018 60.586 259.043C60.5459 259.067 60.5006 259.083 60.4533 259.09Z" fill="white"/>
<path d="M135.044 227.415C135.044 227.502 121.067 232.164 103.712 237.85C86.3573 243.535 72.2637 248.056 72.2637 247.98C72.2637 247.903 86.2408 243.22 103.596 237.545C120.951 231.87 135.021 227.338 135.044 227.415Z" fill="#E0E0E0"/>
<path d="M102.105 248.35C102.105 248.35 101.743 248.502 101.08 248.742L98.2725 249.722C95.9429 250.528 92.5884 251.629 88.9544 252.827C85.3203 254.025 81.9658 255.092 79.6363 255.844L76.7826 256.726C76.4372 256.845 76.0829 256.939 75.7227 257.009C76.047 256.847 76.3861 256.712 76.736 256.606L79.5547 255.637C81.8842 254.82 85.2388 253.72 88.8728 252.522C92.5069 251.324 95.8614 250.267 98.1909 249.504L101.045 248.622C101.389 248.503 101.743 248.412 102.105 248.35Z" fill="#E0E0E0"/>
<path d="M136.558 231.445C136.558 231.521 122.581 236.194 105.226 241.869C87.871 247.544 73.7773 252.086 73.7773 251.999C73.7773 251.912 87.7545 247.25 105.109 241.575C122.464 235.9 136.558 231.336 136.558 231.445Z" fill="#E0E0E0"/>
<path d="M69.2653 271.606L63.5819 273.467C61.5055 274.147 60.4117 276.273 61.1389 278.214L63.1292 283.529C63.8563 285.471 66.129 286.494 68.2054 285.814L73.8888 283.953C75.9652 283.273 77.0589 281.147 76.3318 279.206L74.3415 273.891C73.6144 271.949 71.3417 270.926 69.2653 271.606Z" fill="#EBEBEB"/>
<path d="M68.571 280.766C68.5293 280.785 68.4835 280.795 68.437 280.795C68.3906 280.795 68.3447 280.785 68.3031 280.766L65.694 279.372C65.6515 279.355 65.6133 279.33 65.5821 279.298C65.5508 279.266 65.5271 279.228 65.5126 279.187C65.4981 279.146 65.4931 279.103 65.4979 279.06C65.5027 279.017 65.5172 278.975 65.5405 278.938C65.5638 278.9 65.5953 278.868 65.633 278.843C65.6707 278.818 65.7136 278.801 65.7589 278.792C65.8043 278.784 65.851 278.785 65.8961 278.794C65.9411 278.804 65.9834 278.823 66.0202 278.849L68.3497 280.091L71.0985 274.59C71.1148 274.552 71.1393 274.517 71.1704 274.488C71.2014 274.459 71.2385 274.436 71.2793 274.42C71.3202 274.405 71.3639 274.397 71.4079 274.398C71.4519 274.399 71.4953 274.408 71.5355 274.425C71.5756 274.442 71.6117 274.466 71.6415 274.497C71.6713 274.527 71.6942 274.563 71.7089 274.601C71.7235 274.64 71.7297 274.682 71.7269 274.723C71.724 274.764 71.7124 274.804 71.6925 274.841L68.7923 280.646C68.7353 280.709 68.6572 280.751 68.571 280.766Z" fill="white"/>
<path d="M143.164 249.091C143.164 249.178 129.186 253.84 111.831 259.526C94.4764 265.212 80.3828 269.732 80.3828 269.645C80.3828 269.558 94.36 264.896 111.727 259.221C129.093 253.546 143.129 249.014 143.164 249.091Z" fill="#E0E0E0"/>
<path d="M110.224 270.015C109.893 270.173 109.55 270.308 109.199 270.418L106.38 271.398C104.05 272.205 100.707 273.305 97.0618 274.503C93.4161 275.701 90.0732 276.758 87.7437 277.52L84.89 278.402C84.544 278.519 84.1899 278.614 83.8301 278.686C84.1544 278.523 84.4935 278.389 84.8434 278.283L87.6621 277.302C89.9917 276.496 93.3462 275.396 96.9802 274.198C100.614 273 103.969 271.943 106.298 271.181L109.14 270.298C109.495 270.185 109.857 270.09 110.224 270.015Z" fill="#E0E0E0"/>
<path d="M144.712 253.099C144.712 253.175 130.735 257.848 113.38 263.523C96.0253 269.198 81.9316 273.74 81.9316 273.653C81.9316 273.566 95.9088 268.904 113.264 263.218C130.619 257.532 144.631 253.012 144.712 253.099Z" fill="#E0E0E0"/>
<path d="M77.3786 293.28L71.6952 295.141C69.6188 295.821 68.525 297.946 69.2521 299.888L71.2424 305.203C71.9696 307.145 74.2423 308.168 76.3187 307.488L82.0021 305.627C84.0784 304.947 85.1722 302.821 84.4451 300.879L82.4548 295.564C81.7276 293.623 79.4549 292.6 77.3786 293.28Z" fill="#EBEBEB"/>
<path d="M76.6773 302.442C76.6368 302.458 76.5932 302.467 76.5492 302.467C76.5052 302.467 76.4616 302.458 76.4211 302.442L73.812 301.026C73.7379 300.984 73.6846 300.917 73.6638 300.838C73.6431 300.759 73.6566 300.676 73.7014 300.607C73.7462 300.537 73.8186 300.488 73.9027 300.468C73.9868 300.449 74.0756 300.461 74.1498 300.503L76.4793 301.745L79.2282 296.299C79.2637 296.225 79.3291 296.168 79.4099 296.139C79.4907 296.111 79.5803 296.113 79.6591 296.146C79.7358 296.182 79.7953 296.243 79.8255 296.318C79.8558 296.393 79.8546 296.475 79.8222 296.549L76.9103 302.355C76.8475 302.411 76.7641 302.442 76.6773 302.442Z" fill="white"/>
<path d="M151.281 270.767C151.281 270.854 137.304 275.516 119.949 281.191C102.594 286.866 88.5 291.408 88.5 291.321C88.5 291.234 102.477 286.572 119.832 280.897C137.187 275.222 151.246 270.658 151.281 270.767Z" fill="#E0E0E0"/>
<path d="M118.329 291.691C118.005 291.853 117.666 291.988 117.316 292.094L114.497 293.075C112.168 293.881 108.813 294.981 105.179 296.179C101.545 297.377 98.1904 298.434 95.8609 299.196L93.0072 300.078C92.3316 300.274 91.9473 300.373 91.9473 300.362C92.2716 300.199 92.6107 300.065 92.9606 299.959L95.7793 298.978C98.1089 298.172 101.463 297.072 105.097 295.874C108.731 294.676 112.086 293.619 114.416 292.857L117.269 291.974C117.615 291.857 117.969 291.763 118.329 291.691Z" fill="#E0E0E0"/>
<path d="M152.783 274.775C152.783 274.851 138.805 279.524 121.451 285.199C104.096 290.874 90.002 295.406 90.002 295.329C90.002 295.253 103.979 290.58 121.334 284.894C138.689 279.208 152.748 274.688 152.783 274.775Z" fill="#E0E0E0"/>
<path d="M28.3398 181.666L31.1819 189.29C31.9767 191.413 33.6402 193.154 35.8068 194.13C37.9733 195.106 40.4657 195.238 42.7363 194.497L102.489 174.89C103.612 174.524 104.647 173.953 105.534 173.212C106.422 172.471 107.144 171.573 107.66 170.571C108.176 169.568 108.476 168.48 108.542 167.369C108.608 166.258 108.439 165.146 108.045 164.096L105.203 156.471L28.3398 181.666Z" fill="#E0E0E0"/>
<path d="M67.569 171.34C65.9817 171.862 64.2644 171.932 62.6344 171.541C61.0045 171.15 59.5353 170.316 58.4127 169.143C57.2902 167.971 56.5648 166.514 56.3284 164.956C56.0921 163.398 56.3554 161.809 57.0849 160.391C57.8145 158.973 58.9776 157.789 60.4269 156.99C61.8763 156.19 63.5467 155.811 65.2267 155.9C66.9067 155.989 68.5208 156.542 69.8645 157.489C71.2083 158.436 72.2214 159.735 72.7755 161.22C73.5167 163.208 73.3849 165.39 72.4089 167.286C71.4329 169.183 69.6924 170.641 67.569 171.34ZM63.0264 159.216C62.0474 159.536 61.1918 160.12 60.5679 160.894C59.9439 161.669 59.5796 162.599 59.521 163.567C59.4625 164.535 59.7124 165.498 60.239 166.333C60.7656 167.169 61.5454 167.839 62.4796 168.26C63.4138 168.681 64.4605 168.833 65.4872 168.697C66.5139 168.562 67.4746 168.144 68.2476 167.498C69.0206 166.852 69.5713 166.005 69.8299 165.066C70.0885 164.127 70.0435 163.138 69.7005 162.223C69.241 160.997 68.2801 159.992 67.0287 159.428C65.7773 158.864 64.3378 158.788 63.0264 159.216Z" fill="#E0E0E0"/>
<path d="M115.325 191.142C115.325 191.284 99.6241 196.589 80.1376 202.961C60.6511 209.333 44.8104 214.398 44.7521 214.256C44.6939 214.115 60.4531 208.81 79.9396 202.438C99.426 196.066 115.267 190.957 115.325 191.142Z" fill="#E0E0E0"/>
<path d="M95.1401 193.811C95.1401 193.952 88.268 196.36 79.6604 199.181C71.0528 202.002 64.0293 204.213 63.9711 204.017C63.9128 203.821 70.8548 201.468 79.4624 198.647C88.07 195.826 95.0935 193.669 95.1401 193.811Z" fill="#E0E0E0"/>
<path d="M405.618 414.526C409.907 412.644 414.729 412.098 419.374 412.969C421.867 413.35 424.476 414.058 426.165 415.801C427.854 417.544 428.191 420.637 426.235 422.14C424.971 422.944 423.444 423.302 421.925 423.153C418.279 423.153 414.249 422.511 411.349 424.558C409.683 425.724 408.589 427.663 406.608 428.24C405.612 428.457 404.567 428.362 403.634 427.968C402.701 427.574 401.933 426.904 401.449 426.062C400.507 424.358 400.299 422.382 400.866 420.539C401.11 419.263 401.666 418.056 402.491 417.013C403.315 415.97 404.385 415.119 405.618 414.526Z" fill="#92E3A9"/>
<path d="M395.974 397.229C398.536 400.638 403.51 399.517 405.816 397.425C408.122 395.334 409.089 392.317 409.974 389.441C412.001 382.851 414.051 375.945 412.548 369.235C412.174 367.219 411.22 365.336 409.788 363.789C409.057 363.021 408.124 362.446 407.082 362.121C406.04 361.796 404.924 361.733 403.847 361.937C401.331 362.558 399.782 364.856 398.653 367.035C395.331 373.494 393.592 380.564 393.562 387.731C393.562 391.064 393.97 394.549 395.974 397.305" fill="#92E3A9"/>
<path d="M388.95 402.131C390.266 400.525 391.143 398.642 391.504 396.647C391.866 394.652 391.701 392.605 391.024 390.683C389.616 386.855 387.109 383.464 383.779 380.879C379.992 377.728 375.585 375.297 370.803 373.723C368.956 373.025 366.969 372.709 364.979 372.797C363.984 372.85 363.018 373.129 362.166 373.612C361.313 374.094 360.599 374.764 360.087 375.564C358.713 378.004 360.087 380.956 361.439 383.363C363.932 387.613 366.783 391.67 369.965 395.497C372.515 398.58 375.439 401.619 379.341 403.013C383.243 404.407 387.273 404.233 389.335 401.717" fill="#92E3A9"/>
<path d="M395.81 448.762C395.938 448.254 396.012 447.736 396.031 447.215C396.159 446.126 396.299 444.666 396.474 442.978C396.697 440.889 397.039 438.813 397.499 436.758C398.09 434.258 398.897 431.806 399.91 429.427C400.904 427.051 402.253 424.817 403.916 422.794C405.271 421.144 407.002 419.797 408.983 418.851C410.325 418.228 411.764 417.808 413.246 417.609C413.804 417.59 414.358 417.517 414.9 417.391C414.339 417.334 413.773 417.334 413.211 417.391C411.675 417.507 410.173 417.876 408.773 418.48C406.687 419.397 404.857 420.755 403.427 422.445C401.697 424.501 400.299 426.784 399.281 429.22C398.247 431.633 397.444 434.126 396.881 436.671C396.452 438.751 396.157 440.853 395.996 442.967C395.845 444.764 395.798 446.234 395.775 447.226C395.722 447.737 395.733 448.253 395.81 448.762Z" fill="#263238"/>
<path d="M396.113 445.505C396.148 445.266 396.148 445.024 396.113 444.786V442.76C396.113 440.973 396.113 438.403 396.206 435.135C396.381 428.741 396.963 421.868 398.105 412.173C399.176 403.056 400.621 392.447 402.147 385.552C402.473 383.984 402.799 382.568 403.113 381.337C403.428 380.106 403.661 379.027 403.905 378.167C404.15 377.306 404.278 376.686 404.418 376.163C404.482 375.926 404.528 375.686 404.558 375.444C404.441 375.659 404.351 375.885 404.29 376.119C404.115 376.642 403.905 377.296 403.649 378.102C403.393 378.908 403.067 380.019 402.741 381.25C402.415 382.48 402.03 383.886 401.669 385.454C399.802 393.621 398.399 401.875 397.464 410.18C396.3 419.896 395.81 428.697 395.775 435.146C395.775 438.348 395.775 440.941 395.892 442.771C395.892 443.609 395.985 444.296 396.02 444.829C396.03 445.057 396.061 445.283 396.113 445.505Z" fill="#263238"/>
<path d="M396.159 428.447C396.224 427.722 396.224 426.993 396.159 426.269C396.027 424.316 395.79 422.371 395.449 420.441C394.949 417.575 394.273 414.738 393.422 411.945C392.437 408.507 391.167 405.145 389.625 401.891C386.989 395.892 383.213 390.39 378.478 385.65C377.653 384.84 376.774 384.08 375.846 383.374C375.45 383.047 375.089 382.731 374.681 382.481L373.668 381.827C373.057 381.389 372.406 381.003 371.723 380.672C373.959 382.306 376.08 384.075 378.071 385.966C382.662 390.738 386.342 396.214 388.949 402.152C390.46 405.387 391.736 408.713 392.77 412.108C393.646 414.874 394.366 417.681 394.925 420.517C395.402 422.946 395.682 424.874 395.845 426.29C395.893 427.015 395.998 427.736 396.159 428.447Z" fill="#263238"/>
<path d="M378.525 458.543L380.354 481.962H412.536L414.353 458.543H378.525Z" fill="#263238"/>
<path d="M418.209 449.306H375.428V458.543H418.209V449.306Z" fill="#263238"/>
<path d="M375.428 481.069V483.618H377.431H417.487V481.069H375.428Z" fill="#455A64"/>
<path d="M379.398 488.127L377.43 483.618H415.96L413.654 488.127H379.398Z" fill="#455A64"/>
<path d="M413.771 466.19C413.771 466.19 413.771 466.277 413.619 466.407L413.142 467.007L411.266 469.25L411.185 469.348L411.103 469.24L406.503 463.292H406.782L402.24 469.294L402.1 469.479L401.937 469.305L396.567 463.314H396.87L396.579 463.663L391.768 469.294L391.617 469.49L391.465 469.294C389.835 467.115 388.309 465.111 386.923 463.292H387.191L381.612 469.24L381.507 469.348L381.425 469.229C380.691 468.074 380.109 467.148 379.678 466.484L379.235 465.754C379.177 465.673 379.13 465.585 379.096 465.492C379.096 465.492 379.166 465.558 379.282 465.721L379.783 466.429L381.612 469.12H381.437L386.935 463.096L387.074 462.944L387.202 463.107L391.78 469.087H391.465L396.299 463.456L396.602 463.107L396.754 462.922L396.905 463.096L402.274 469.098H401.972L406.549 463.118L406.677 462.944L406.817 463.118C408.622 465.547 410.172 467.606 411.325 469.142H411.15L413.107 466.963L413.631 466.397L413.771 466.19Z" fill="#E0E0E0"/>
<path d="M414.807 458.38C414.807 458.489 406.747 458.576 396.8 458.576C386.853 458.576 378.793 458.489 378.793 458.38C378.793 458.271 386.853 458.195 396.8 458.195C406.747 458.195 414.807 458.282 414.807 458.38Z" fill="#455A64"/>
<path d="M416.439 483.879C416.439 483.977 407.668 484.064 396.871 484.064C386.073 484.064 377.303 483.977 377.303 483.879C377.303 483.781 386.062 483.683 396.871 483.683C407.68 483.683 416.439 483.77 416.439 483.879Z" fill="#263238"/>
<path d="M99.0521 409.156C98.9589 409.254 98.2251 408.84 97.4098 408.231C96.5945 407.621 96.0004 407.043 96.0936 406.934C96.1868 406.825 96.9089 407.25 97.7243 407.86C98.5396 408.47 99.1336 409.047 99.0521 409.156Z" fill="#263238"/>
<path d="M121.415 377.96C121.732 375.055 121.476 372.119 120.658 369.301C119.68 366.523 117.397 363.985 114.345 363.386C110.851 362.711 107.287 364.769 105.33 367.558C103.373 370.346 102.709 373.723 102.127 377.002C98.1529 399.657 96.6892 422.634 97.7589 445.57L112.016 447.444C118.224 423.513 120.25 402.588 121.415 377.96Z" fill="#455A64"/>
<path d="M112.308 363.244L112.238 363.462L112.005 364.061L111.05 366.371C110.852 366.872 110.584 367.46 110.374 368.037L109.687 370.052L108.883 372.372L108.149 375.019C106.953 379.391 106.031 383.825 105.389 388.297C104.62 393.308 104.119 398.863 103.712 404.701C102.99 416.389 102.873 426.998 102.547 434.667C102.396 438.512 102.256 441.616 102.104 443.751C102.023 444.84 101.965 445.614 101.918 446.224C101.918 446.474 101.918 446.692 101.918 446.856C101.918 447.019 101.918 447.073 101.918 447.073C101.918 447.073 101.918 447.008 101.918 446.856C101.918 446.703 101.918 446.474 101.918 446.213C101.918 445.614 101.918 444.786 102 443.74C102.093 441.562 102.174 438.501 102.279 434.656C102.512 427.031 102.57 416.378 103.304 404.68C103.7 398.83 104.224 393.264 105.016 388.232C105.684 383.773 106.645 379.357 107.893 375.008L108.662 372.361C108.965 371.548 109.244 370.775 109.501 370.041L110.246 368.026C110.467 367.416 110.747 366.872 110.957 366.371L112.005 364.105C112.114 363.865 112.207 363.669 112.284 363.517C112.276 363.425 112.284 363.333 112.308 363.244Z" fill="#263238"/>
<path d="M113.623 363.299C114.366 364.12 114.956 365.051 115.37 366.055C116.46 368.81 116.901 371.752 116.663 374.682C116.29 382.056 115.579 392.208 114.648 403.427C113.716 414.646 112.656 424.776 111.817 432.107C111.386 435.767 111.025 438.73 110.757 440.821C110.617 441.812 110.513 442.597 110.431 443.174L110.338 443.784C110.343 443.853 110.343 443.922 110.338 443.991C110.338 443.991 110.338 443.925 110.338 443.784C110.338 443.642 110.338 443.413 110.338 443.163C110.338 442.586 110.466 441.801 110.559 440.799C110.78 438.708 111.083 435.756 111.456 432.085C112.202 424.744 113.192 414.657 114.135 403.394C115.078 392.131 115.836 382.034 116.301 374.682C116.555 371.787 116.158 368.874 115.137 366.131C114.722 365.147 114.216 364.199 113.623 363.299Z" fill="#263238"/>
<path d="M123.513 397.817C122.577 397.754 121.662 397.532 120.811 397.164C119.906 396.943 119.05 396.575 118.283 396.074C119.22 396.132 120.137 396.353 120.985 396.728C121.891 396.946 122.747 397.315 123.513 397.817Z" fill="#263238"/>
<path d="M125.237 384.223C124.464 384.801 123.594 385.253 122.663 385.563C121.797 386.012 120.855 386.317 119.879 386.467C121.512 385.434 123.325 384.675 125.237 384.223Z" fill="#263238"/>
<path d="M124.339 373.124C122.932 373.362 121.483 373.268 120.123 372.852C120.812 372.667 121.538 372.633 122.243 372.754C122.963 372.724 123.681 372.85 124.339 373.124Z" fill="#263238"/>
<path d="M109.616 366.022C109.5 366.087 108.871 365.357 108.23 364.399C107.764 363.845 107.434 363.201 107.264 362.514C107.38 362.449 108.009 363.168 108.661 364.137C109.314 365.107 109.768 365.946 109.616 366.022Z" fill="#263238"/>
<path d="M104.759 372.732C104.11 372.95 103.414 373.017 102.732 372.928C102.045 372.989 101.353 372.892 100.717 372.645C101.365 372.426 102.061 372.359 102.743 372.448C103.43 372.387 104.122 372.484 104.759 372.732Z" fill="#263238"/>
<path d="M101.264 386.119C100.519 386.091 99.7898 385.904 99.1327 385.574C98.4136 385.383 97.7491 385.044 97.1875 384.583C97.933 384.611 98.6619 384.797 99.319 385.127C100.038 385.319 100.703 385.657 101.264 386.119Z" fill="#263238"/>
<path d="M100.892 397.436C100.892 397.567 100.112 397.839 99.0753 398.035C98.0386 398.231 97.1884 398.307 97.1534 398.177C97.1185 398.046 97.9455 397.774 98.9704 397.578C99.5886 397.382 100.249 397.334 100.892 397.436Z" fill="#263238"/>
<path d="M99.2845 415.91C99.2845 416.04 98.4458 416.291 97.351 416.476C96.6969 416.658 96.0052 416.688 95.3359 416.563C95.9235 416.236 96.5866 416.045 97.2694 416.008C97.922 415.819 98.6145 415.785 99.2845 415.91Z" fill="#263238"/>
<path d="M98.121 426.105C98.1908 426.214 97.4687 426.693 96.5136 427.194C95.5585 427.695 94.7315 427.957 94.6733 427.837C94.615 427.717 95.3255 427.249 96.2806 426.748C97.2357 426.247 98.121 425.985 98.121 426.105Z" fill="#263238"/>
<path d="M107.054 437.673C106.938 437.738 106.309 436.932 105.656 435.865C105.185 435.254 104.859 434.556 104.701 433.817C104.818 433.752 105.447 434.558 106.099 435.625C106.571 436.236 106.896 436.934 107.054 437.673Z" fill="#263238"/>
<path d="M109.628 418.448C109.721 418.535 109.022 419.33 108.067 420.212C107.112 421.095 106.25 421.726 106.145 421.628C106.04 421.53 106.751 420.746 107.706 419.864C108.661 418.982 109.523 418.35 109.628 418.448Z" fill="#263238"/>
<path d="M109.057 408.35C108.952 408.448 108.312 407.947 107.613 407.261C106.914 406.575 106.448 405.91 106.541 405.823C106.634 405.736 107.287 406.226 107.985 406.913C108.684 407.599 109.162 408.263 109.057 408.35Z" fill="#263238"/>
<path d="M110.828 395.464C110.933 395.552 110.35 396.325 109.523 397.175C108.696 398.024 107.951 398.667 107.846 398.58C107.741 398.493 108.324 397.719 109.139 396.859C109.954 395.998 110.723 395.377 110.828 395.464Z" fill="#263238"/>
<path d="M111.817 386.119C111.712 386.217 110.909 385.618 110 384.79C109.092 383.962 108.451 383.21 108.544 383.112C108.637 383.014 109.453 383.613 110.361 384.452C111.27 385.291 111.91 386.021 111.817 386.119Z" fill="#263238"/>
<path d="M113.774 373.462C113.62 374.149 113.306 374.796 112.854 375.357C112.237 376.337 111.631 377.078 111.514 377.013C111.398 376.947 111.794 376.098 112.423 375.117C113.052 374.137 113.646 373.396 113.774 373.462Z" fill="#263238"/>
<path d="M117.443 361.741C117.572 361.806 117.21 362.656 116.64 363.636C116.069 364.617 115.475 365.368 115.382 365.314C115.493 364.633 115.767 363.985 116.186 363.419C116.756 362.427 117.315 361.687 117.443 361.741Z" fill="#263238"/>
<path d="M121.614 367.067C121.672 367.187 121.102 367.558 120.333 367.906C119.564 368.255 118.9 368.429 118.842 368.309C118.784 368.189 119.354 367.819 120.123 367.47C120.892 367.122 121.556 366.948 121.614 367.067Z" fill="#263238"/>
<path d="M121.706 409.156C119.772 409.024 117.939 408.292 116.5 407.076C117.407 407.333 118.285 407.672 119.121 408.089C120.019 408.361 120.886 408.719 121.706 409.156Z" fill="#263238"/>
<path d="M120.005 418.066C120.005 418.197 119.178 418.458 118.083 418.655C117.433 418.85 116.74 418.891 116.068 418.774C116.651 418.44 117.309 418.239 117.99 418.186C119.085 417.99 119.982 417.936 120.005 418.066Z" fill="#263238"/>
<path d="M117.922 433.349C117.84 433.458 116.757 432.75 115.755 431.573C115.088 430.902 114.619 430.08 114.393 429.188C115.044 429.835 115.632 430.535 116.151 431.279C116.808 431.917 117.401 432.609 117.922 433.349Z" fill="#263238"/>
<path d="M94.9864 440.342C94.8932 440.244 95.4756 439.634 96.2792 438.991C97.0829 438.348 97.8167 437.902 97.9099 438.011C98.0031 438.12 97.4207 438.708 96.617 439.361C95.8133 440.015 95.0795 440.44 94.9864 440.342Z" fill="#263238"/>
<path d="M88.3935 406.989C87.4617 404.276 85.7262 401.118 82.6862 401.074C81.7803 401.12 80.9044 401.393 80.1502 401.864C79.3961 402.336 78.7915 402.988 78.3998 403.754C77.5631 405.265 77.1617 406.954 77.2351 408.655C77.6105 420.728 79.8104 432.69 83.7694 444.187H94.9162C94.7812 431.549 92.5815 419.005 88.3935 406.989Z" fill="#455A64"/>
<path d="M68.2558 389.92C67.7045 387.379 66.2566 385.086 64.1445 383.407C62.0323 381.728 59.3783 380.761 56.6082 380.661C51.6813 381.467 49.7711 385.999 49.1887 390.639C48.6063 395.279 50.1438 399.898 51.6696 404.353C56.5461 418.644 61.4303 432.938 66.3223 447.237L80.183 445.821C75.8501 426.671 73.3342 408.917 68.2558 389.92Z" fill="#455A64"/>
<path d="M82.6874 401.074C82.3272 401.537 82.0114 402.029 81.7439 402.544C81.1694 404.017 80.9894 405.599 81.2198 407.152C81.4294 409.134 81.674 411.509 82.0351 414.123C82.3962 416.737 82.897 419.569 83.526 422.598C84.7839 428.589 86.205 433.948 87.1018 437.847C87.5561 439.797 87.9055 441.387 88.1152 442.487C88.2083 442.999 88.2899 443.413 88.3481 443.762C88.4064 444.11 88.418 444.208 88.3481 444.208C88.2876 444.071 88.2408 443.929 88.2083 443.784L87.8822 442.531C87.5794 441.365 87.1833 439.808 86.7174 437.923C85.7274 434.024 84.2482 428.676 82.9902 422.674C82.3612 419.668 81.8254 416.792 81.5343 414.156C81.3479 412.849 81.2314 411.585 81.1149 410.42C80.9985 409.254 80.882 408.154 80.8238 407.152C80.6246 405.553 80.8652 403.934 81.5226 402.446C81.7998 401.915 82.1973 401.447 82.6874 401.074Z" fill="#263238"/>
<path d="M56.8647 380.291C56.2471 380.949 55.6863 381.652 55.1875 382.393C53.9118 384.464 53.1886 386.792 53.0793 389.179C53.0213 392.719 53.6001 396.243 54.7915 399.603C55.9562 403.459 57.3423 407.697 58.7516 412.13C61.5121 421.018 64.0047 429.057 65.8334 434.928L67.93 441.856C68.1629 442.64 68.3376 443.261 68.4774 443.74C68.5535 443.956 68.6043 444.179 68.6288 444.405C68.522 444.202 68.4362 443.99 68.3726 443.773C68.2212 443.293 67.9999 442.683 67.7436 441.899C67.1962 440.233 66.4274 437.891 65.4956 435.026L58.2624 412.261C56.8647 407.806 55.5485 403.547 54.3372 399.712C53.1507 396.304 52.6029 392.73 52.7182 389.147C52.8683 386.713 53.6693 384.353 55.0477 382.284C55.5316 381.531 56.1455 380.857 56.8647 380.291Z" fill="#263238"/>
<path d="M77.2122 444.437C77.0949 444.236 76.9899 444.029 76.8977 443.816C76.723 443.392 76.4318 442.792 76.1173 441.986C75.4534 440.396 74.6031 438.054 73.7878 435.113C72.9725 432.172 72.0407 428.578 71.202 424.656C70.3634 420.735 69.5248 416.345 68.593 411.77C67.6612 407.196 66.5663 402.893 65.32 399.048C64.2387 395.63 62.8878 392.291 61.2783 389.06C60.184 386.885 58.9349 384.782 57.5394 382.764C57.0618 382.045 56.6309 381.511 56.3746 381.141C56.2287 380.955 56.1001 380.758 55.9902 380.552C56.1611 380.714 56.3169 380.889 56.4561 381.075C56.7473 381.446 57.2016 381.947 57.7024 382.666C59.1755 384.651 60.4802 386.742 61.6044 388.918C63.2751 392.141 64.6657 395.485 65.7626 398.917C67.0781 403.117 68.1589 407.378 69.0006 411.683C69.9208 416.247 70.7827 420.604 71.5747 424.58C72.3668 428.556 73.2054 432.074 74.0441 435.026C74.8827 437.978 75.6631 440.32 76.2687 441.921C76.5483 442.738 76.8162 443.348 76.9676 443.773C77.0756 443.985 77.1576 444.208 77.2122 444.437Z" fill="#263238"/>
<path d="M51.9715 402.218C51.9715 402.338 51.2493 402.621 50.2826 402.839C49.3158 403.056 48.5121 403.133 48.4888 403.002C48.4655 402.871 49.1993 402.599 50.1661 402.381C51.1328 402.163 51.9365 402.087 51.9715 402.218Z" fill="#263238"/>
<path d="M50.5048 393.373C49.7476 393.572 48.9605 393.653 48.1752 393.613C47.4004 393.715 46.6126 393.693 45.8457 393.547C46.571 393.224 47.3735 393.081 48.1752 393.133C48.9609 393.026 49.7628 393.109 50.5048 393.373Z" fill="#263238"/>
<path d="M52.065 385.291C51.9719 385.4 51.2148 384.942 50.3878 384.278C49.5608 383.613 48.9435 382.992 49.0367 382.894C49.1298 382.796 49.8753 383.243 50.7139 383.907C51.5525 384.572 52.1582 385.193 52.065 385.291Z" fill="#263238"/>
<path d="M56.2943 377.819C56.434 377.819 56.3875 378.483 56.3758 379.235C56.3642 379.986 56.3758 380.629 56.2011 380.651C56.0264 380.672 55.84 380.041 55.8633 379.224C55.8866 378.407 56.1894 377.786 56.2943 377.819Z" fill="#263238"/>
<path d="M64.9238 381.337C65.0403 381.413 64.7025 382.056 64.1667 382.764C63.631 383.472 63.1068 383.995 63.002 383.918C62.8972 383.842 63.2233 383.21 63.7474 382.492C64.2716 381.773 64.8074 381.261 64.9238 381.337Z" fill="#263238"/>
<path d="M70.5264 390.476C70.5264 390.606 69.8625 390.987 68.9307 391.347C67.9989 391.706 67.1835 391.892 67.1369 391.772C67.0903 391.652 67.8008 391.26 68.7327 390.911C69.6645 390.563 70.4798 390.323 70.5264 390.476Z" fill="#263238"/>
<path d="M73.929 399.811C73.3127 400.311 72.5497 400.626 71.7393 400.715C70.9629 400.95 70.1315 400.976 69.3398 400.791C70.0872 400.514 70.8705 400.331 71.6694 400.246C72.4009 400.016 73.1597 399.869 73.929 399.811Z" fill="#263238"/>
<path d="M58.3205 397.153C58.1924 397.153 58.3205 396.467 58.5418 395.704C58.7631 394.942 59.1125 394.364 59.2407 394.408C59.3688 394.451 59.2407 395.094 59.0193 395.857C58.798 396.619 58.5185 397.196 58.3205 397.153Z" fill="#263238"/>
<path d="M60.498 408.917C60.5452 408.23 60.7604 407.563 61.127 406.967C61.6046 405.943 62.0938 405.159 62.2219 405.213C62.1748 405.9 61.9596 406.567 61.5929 407.163C61.1154 408.187 60.6262 408.993 60.498 408.917Z" fill="#263238"/>
<path d="M55.118 412.141C54.4316 412.125 53.755 411.985 53.1262 411.727C52.0663 411.411 51.2044 411.128 51.2393 410.997C51.9326 410.914 52.637 411.008 53.2776 411.269C54.3609 411.585 55.1762 412.021 55.118 412.141Z" fill="#263238"/>
<path d="M58.216 421.726C58.2976 421.835 57.7036 422.358 56.8999 422.903C56.0962 423.447 55.3507 423.796 55.2692 423.698C55.1877 423.6 55.7817 423.055 56.597 422.51C57.4124 421.966 58.1345 421.617 58.216 421.726Z" fill="#263238"/>
<path d="M60.7089 431.29C60.7089 431.41 60.0101 431.693 59.0666 431.9C58.1232 432.107 57.3428 432.183 57.3078 432.063C57.2729 431.944 58.0067 431.66 58.9502 431.442C59.8936 431.225 60.674 431.159 60.7089 431.29Z" fill="#263238"/>
<path d="M74.2075 407.806C74.2774 407.915 73.6484 408.383 72.7399 408.699C71.8314 409.015 71.016 409.058 70.9927 408.938C70.9694 408.819 71.6916 408.568 72.5535 408.252C73.4154 407.936 74.1376 407.686 74.2075 407.806Z" fill="#263238"/>
<path d="M76.1291 422.674C76.0708 422.794 75.3254 422.587 74.4635 422.206C73.6016 421.824 72.9493 421.421 73.0075 421.302C73.0658 421.182 73.8228 421.4 74.6848 421.77C75.5467 422.14 76.199 422.554 76.1291 422.674Z" fill="#263238"/>
<path d="M79.5423 433.327C78.7709 433.29 78.0165 433.101 77.3293 432.771C76.1645 432.347 75.2676 431.9 75.3142 431.769C76.0819 431.806 76.8323 431.996 77.5156 432.325C78.6804 432.75 79.5889 433.196 79.5423 433.327Z" fill="#263238"/>
<path d="M61.2557 441.671C61.1859 441.551 62.0944 440.984 63.1427 440.211C64.1909 439.438 65.0063 438.741 65.1111 438.839C65.2159 438.937 64.552 439.775 63.4571 440.581C62.848 441.132 62.0848 441.509 61.2557 441.671Z" fill="#263238"/>
<path d="M70.2475 436.224C70.1077 436.224 69.9097 435.527 69.5603 434.699C69.2109 433.872 68.8614 433.207 68.9779 433.131C69.0944 433.055 69.6768 433.621 70.0379 434.525C70.3989 435.429 70.3873 436.224 70.2475 436.224Z" fill="#263238"/>
<path d="M67.8354 423.447C67.7539 423.556 67.1715 423.295 66.5309 422.87C65.8903 422.445 65.4477 422.01 65.5292 421.901C65.6107 421.792 66.1931 422.053 66.8337 422.478C67.4744 422.903 67.9519 423.339 67.8354 423.447Z" fill="#263238"/>
<path d="M88.8031 403.383C88.8846 403.492 88.3139 404.015 87.5335 404.549C86.7531 405.082 86.0543 405.442 85.9727 405.333C85.8912 405.224 86.4503 404.712 87.2307 404.167C88.0111 403.623 88.8031 403.274 88.8031 403.383Z" fill="#263238"/>
<path d="M92.0049 411.466C92.0049 411.596 91.1313 411.771 90.0364 411.662C88.9415 411.553 88.1146 411.204 88.1495 411.084C88.1844 410.965 89.0464 411.084 90.0947 411.182C91.1429 411.28 91.9932 411.335 92.0049 411.466Z" fill="#263238"/>
<path d="M78.4128 413.285C78.4128 413.405 77.6324 413.677 76.5608 413.742C75.4892 413.808 74.6506 413.644 74.6622 413.513C74.6739 413.383 75.5125 413.339 76.5375 413.274C77.5625 413.208 78.3895 413.154 78.4128 413.285Z" fill="#263238"/>
<path d="M79.5895 405.638C79.5895 405.769 78.7508 405.791 77.8423 405.388C76.9338 404.984 76.4097 404.407 76.5028 404.298C76.596 404.189 77.225 404.603 78.052 404.952C78.8789 405.3 79.6011 405.507 79.5895 405.638Z" fill="#263238"/>
<path d="M93.1703 420.147C93.1005 420.256 92.2502 419.886 91.2718 419.308C90.2934 418.731 89.5712 418.219 89.6528 418.066C89.7343 417.914 90.5729 418.339 91.5513 418.905C92.5297 419.472 93.2519 420.038 93.1703 420.147Z" fill="#263238"/>
<path d="M126.331 442.825H53.8242V454.84H126.331V442.825Z" fill="#92E3A9"/>
<path d="M59.2402 452.465L68.0575 488.378H111.27L120.914 452.465H59.2402Z" fill="#92E3A9"/>
<path d="M126.296 454.861C126.296 454.992 109.989 455.101 89.7691 455.101C69.5489 455.101 53.2422 454.992 53.2422 454.861C53.2422 454.731 69.5489 454.622 89.7691 454.622C109.989 454.622 126.296 454.742 126.296 454.861Z" fill="#263238"/>
<path d="M85.9711 413.546C85.8546 413.611 85.3538 413.078 84.8646 412.337C84.3754 411.596 84.0725 410.943 84.189 410.877C84.3055 410.812 84.8063 411.346 85.2955 412.087C85.7847 412.827 86.0876 413.47 85.9711 413.546Z" fill="#263238"/>
<path d="M85.9957 423.208C85.9608 422.581 86.0929 421.956 86.3801 421.389C86.7179 420.419 87.1139 419.668 87.242 419.711C87.2779 420.342 87.1458 420.97 86.8576 421.541C86.4733 422.5 86.1355 423.251 85.9957 423.208Z" fill="#263238"/>
<path d="M89.5352 433.36C89.4071 433.425 88.8713 432.608 88.3704 431.552C87.9686 430.938 87.7142 430.251 87.625 429.536C87.7531 429.471 88.2889 430.288 88.7898 431.345C89.1916 431.958 89.446 432.645 89.5352 433.36Z" fill="#263238"/>
<path d="M81.8829 441.529C81.7781 441.442 82.209 440.821 82.8496 440.124C83.4903 439.427 84.0843 438.947 84.2008 439.035C84.3172 439.122 83.8746 439.754 83.234 440.44C82.5934 441.126 81.9877 441.671 81.8829 441.529Z" fill="#263238"/>
<path d="M80.277 426.704C80.277 426.835 79.5549 426.824 78.7162 426.704C77.8776 426.584 77.2254 426.356 77.2487 426.225C77.2719 426.094 77.9708 426.105 78.7978 426.225C79.6248 426.345 80.3003 426.573 80.277 426.704Z" fill="#263238"/>
<path d="M332.528 360.238H160.586V488.465H332.528V360.238Z" fill="#E0E0E0"/>
<g opacity="0.3">
<path opacity="0.3" d="M173.107 360.499C193.351 367.253 215.679 368.701 237.402 369.083C241.91 369.159 246.464 369.148 250.82 370.172C255.177 371.196 259.381 373.516 261.618 377.165C264.052 381.141 263.796 386.119 262.41 390.508C261.024 394.898 258.636 398.961 256.912 403.242C253.86 410.815 252.926 418.992 254.198 426.998C254.59 430.409 255.818 433.689 257.786 436.584C258.783 438.022 260.126 439.222 261.707 440.088C263.289 440.954 265.065 441.463 266.894 441.572C273.428 441.66 277.901 435.658 281.139 430.342C294.429 408.557 308.802 383.831 317.305 360.053L173.107 360.499Z" fill="black"/>
</g>
<path d="M219.174 487.779C218.999 487.779 218.871 459.36 218.871 424.308C218.871 389.256 218.999 360.826 219.174 360.826C219.349 360.826 219.477 389.245 219.477 424.308C219.477 459.371 219.337 487.779 219.174 487.779Z" fill="#455A64"/>
<path d="M289.631 265.473C289.118 262.27 278.892 251.705 278.892 251.705C278.892 251.705 273.79 232.523 272.252 226.87C271.741 225.235 270.992 223.674 270.028 222.229C266.412 216.596 261.268 211.955 255.119 208.777L240.967 201.338L237.589 194.301L203.601 177.962L194.388 193.212C194.388 193.212 172.013 199.856 169.054 204.573C166.096 209.289 170.522 272.978 170.522 272.978C170.522 272.978 161.204 309.707 159.189 317.31C157.174 324.913 159.818 333.976 159.818 333.976L176.486 314.424C181.669 308.346 193.037 305.546 201.202 305.655L270.983 305.949L268.176 287.672L324.632 297.889C324.632 297.889 334.334 280.178 335.115 279.829C335.895 279.481 289.631 265.473 289.631 265.473Z" fill="#92E3A9"/>
<path d="M202.156 199.148C201.667 198.68 206.093 212.677 211.661 226.935C214.656 234.64 216.182 242.777 216.168 250.975V302.605L249.62 300.481L244.623 266.475C244.623 266.475 240.547 244.537 239.405 236.194C238.357 228.569 234.746 207.873 234.746 207.873C234.746 207.873 216.168 212.492 202.156 199.148Z" fill="white"/>
<path d="M276.398 278.283C276.346 278.02 276.346 277.75 276.398 277.487C276.475 276.775 276.623 276.071 276.841 275.385C277.548 273.094 278.862 271.007 280.662 269.318C282.471 267.634 284.701 266.398 287.149 265.723C287.883 265.52 288.636 265.381 289.397 265.31C289.674 265.26 289.959 265.26 290.236 265.31C290.236 265.408 289.071 265.527 287.277 266.105C284.949 266.852 282.835 268.087 281.097 269.717C279.358 271.346 278.042 273.326 277.249 275.505C276.631 277.193 276.503 278.283 276.398 278.283Z" fill="#263238"/>
<path d="M278.123 265.909C279.677 265.055 281.435 264.58 283.236 264.525C285.02 264.294 286.837 264.497 288.513 265.113C288.513 265.288 286.183 264.863 283.283 265.113C280.383 265.364 278.193 266.072 278.123 265.909Z" fill="#263238"/>
<g opacity="0.3">
<path opacity="0.3" d="M167.156 294.087L164.244 297.159C167.28 300.664 171.395 303.212 176.032 304.457C180.704 305.384 185.479 305.787 190.253 305.655C192.188 305.743 194.125 305.57 196.007 305.143C197.906 304.631 199.665 303.629 201.633 303.52C202.953 303.526 204.266 303.702 205.535 304.043C206.812 304.382 208.161 304.401 209.449 304.098C210.086 303.937 210.651 303.588 211.06 303.103C211.469 302.619 211.7 302.024 211.72 301.407C197.199 297.438 182.254 294.984 167.156 294.087Z" fill="black"/>
</g>
<path d="M262.665 298.031L254.512 289.883L237.565 285.907C237.565 285.907 222.097 290.264 221.724 290.264C221.351 290.264 208.259 286.909 208.259 286.909L203.682 302.616L227.268 304.13L254.197 303.117C254.197 303.117 255.607 301.897 254.768 301.059C253.929 300.22 259.276 302.475 259.905 302.497C260.534 302.518 261.745 302.976 262.584 302.039C263.154 301.342 263.923 299.283 262.665 298.031Z" fill="#FFBE9D"/>
<path d="M254.769 301.004C253.854 300.843 252.957 300.602 252.09 300.286C250.459 299.806 248.188 299.196 245.66 298.543C243.133 297.889 240.803 297.453 239.114 297.181C238.19 297.068 237.281 296.867 236.4 296.582C237.333 296.544 238.268 296.61 239.184 296.778C241.412 297.069 243.621 297.476 245.8 297.998C247.982 298.516 250.129 299.156 252.23 299.915C253.122 300.176 253.975 300.542 254.769 301.004Z" fill="#EB996E"/>
<path d="M262.666 298.031C261.396 297.73 260.144 297.367 258.916 296.941C256.586 296.222 253.406 295.329 249.83 294.403C246.255 293.477 243.087 292.421 240.675 292.29C239.377 292.228 238.075 292.275 236.785 292.432C237.101 292.27 237.443 292.159 237.798 292.105C238.751 291.913 239.726 291.839 240.699 291.887C243.191 291.887 246.523 292.878 250.017 293.859C253.511 294.839 256.796 295.743 259.079 296.571C260.243 296.974 261.117 297.344 261.746 297.606C262.073 297.704 262.383 297.847 262.666 298.031Z" fill="#EB996E"/>
<path d="M169.054 204.573C169.054 204.573 156.882 212.492 153.912 223.885C150.942 235.279 138.118 281.844 140.75 288.805C143.383 295.765 194.562 302.606 194.562 302.606L200.631 278.642L174.633 271.987C174.633 271.987 174.971 249.82 175.297 240.638C175.623 231.456 169.054 204.573 169.054 204.573Z" fill="#92E3A9"/>
<path d="M200.304 282.247L208.679 284.175L203.635 302.235L195.412 301.004L200.304 282.247Z" fill="white"/>
<path d="M140.564 286.343C140.564 286.343 140.564 286.746 140.692 287.432C140.975 288.485 141.597 289.432 142.474 290.144C144.699 292.083 148.95 293.695 154.331 294.599C156.789 295.362 159.596 295.961 162.589 296.593C165.583 297.224 168.821 297.867 172.222 298.51C179.036 299.817 186.572 301.189 194.562 302.584L194.213 302.791C194.783 300.612 195.377 298.227 196.018 295.841C197.451 290.395 198.848 285.036 200.165 279.993L200.374 280.319L177.324 274.209C174.141 272.955 170.697 272.39 167.248 272.553C164.627 272.69 162.053 273.257 159.643 274.23C158.111 274.85 156.648 275.609 155.275 276.496L154.215 277.215C154.099 277.302 153.974 277.379 153.842 277.444C153.842 277.444 153.947 277.335 154.168 277.16C154.389 276.986 154.727 276.714 155.193 276.387C156.546 275.449 158.002 274.649 159.538 274.002C161.963 272.974 164.568 272.365 167.225 272.204C170.734 271.995 174.248 272.539 177.498 273.795L200.619 279.851L200.898 279.916L200.828 280.178C199.512 285.221 198.126 290.536 196.705 296.037C196.076 298.412 195.471 300.765 194.888 302.976L194.818 303.237H194.539C186.549 301.832 179.024 300.438 172.21 299.109C168.809 298.444 165.583 297.78 162.578 297.126C159.573 296.473 156.754 295.852 154.285 295.057C148.834 294.087 144.582 292.41 142.334 290.373C141.443 289.624 140.831 288.628 140.587 287.53C140.503 287.139 140.495 286.737 140.564 286.343Z" fill="#263238"/>
<path d="M176.053 273.61C175.983 273.686 175.11 272.934 173.549 271.965C169.462 269.405 164.63 268.085 159.712 268.185C157.825 268.185 156.672 268.425 156.648 268.327C157.624 267.996 158.651 267.816 159.688 267.793C164.742 267.45 169.759 268.815 173.829 271.638C174.682 272.176 175.433 272.842 176.053 273.61Z" fill="#263238"/>
<path d="M179.467 234.614C179.51 235.1 179.51 235.588 179.467 236.074C179.467 237.022 179.362 238.372 179.223 240.05C178.931 243.394 178.407 248.001 177.464 253.055C176.726 257.379 175.648 261.646 174.237 265.821C173.958 266.617 173.655 267.335 173.41 268L172.665 269.568C172.447 270.015 172.177 270.439 171.861 270.832C172.007 270.365 172.202 269.912 172.444 269.481C172.642 269.013 172.851 268.479 173.096 267.891C173.341 267.303 173.574 266.54 173.83 265.712C175.103 261.522 176.118 257.267 176.87 252.968C177.802 247.936 178.396 243.35 178.792 240.017C178.966 238.438 179.118 237.12 179.234 236.074C179.249 235.58 179.328 235.09 179.467 234.614Z" fill="#263238"/>
<path d="M209.145 222.273C209.145 222.273 209.028 221.979 208.749 221.467C208.334 220.741 207.729 220.127 206.99 219.681C206.443 219.33 205.818 219.1 205.162 219.01C204.506 218.919 203.836 218.97 203.204 219.158C202.403 219.414 201.688 219.862 201.128 220.456C200.568 221.05 200.184 221.77 200.013 222.545L199.85 223.319L199.489 222.6C198.126 219.866 196.94 217.058 195.936 214.191C194.157 209.416 193.266 204.39 193.304 199.333C193.304 198.364 193.444 197.493 193.502 196.719C193.56 195.946 193.746 195.303 193.875 194.78C193.998 194.231 194.169 193.691 194.387 193.168C193.99 195.203 193.768 197.265 193.723 199.333C193.819 204.334 194.759 209.29 196.507 214.017C197.512 216.861 198.678 219.654 200.001 222.382L199.477 222.447C199.678 221.591 200.116 220.799 200.748 220.15C201.38 219.502 202.183 219.021 203.076 218.755C203.77 218.559 204.502 218.517 205.216 218.633C205.93 218.748 206.605 219.017 207.188 219.419C207.944 219.917 208.541 220.599 208.912 221.391C209.013 221.599 209.088 221.819 209.133 222.044C209.156 222.186 209.168 222.273 209.145 222.273Z" fill="#263238"/>
<path d="M237.541 224.724C237.417 224.299 237.327 223.866 237.274 223.428C237.019 222.227 236.936 221 237.029 219.779C237.291 217.9 238.292 216.18 239.836 214.953C240.791 214.218 241.988 213.814 243.225 213.81C243.9 213.802 244.567 213.932 245.183 214.19C245.798 214.447 246.346 214.827 246.79 215.302L246.277 215.585L245.171 212.982C242.992 207.851 241.059 203.178 239.685 199.813L238.089 195.793C237.867 195.313 237.699 194.813 237.588 194.301C237.875 194.751 238.116 195.225 238.31 195.717C238.776 196.806 239.37 198.081 240.092 199.671C241.571 203.015 243.587 207.644 245.741 212.742L246.836 215.356L247.547 217.034L246.382 215.629C245.997 215.211 245.519 214.878 244.982 214.652C244.445 214.427 243.861 214.314 243.272 214.322C242.163 214.315 241.086 214.665 240.22 215.313C238.765 216.451 237.794 218.039 237.483 219.79C237.358 220.983 237.381 222.185 237.553 223.373C237.608 223.822 237.604 224.276 237.541 224.724Z" fill="#263238"/>
<path d="M259.149 227.425C259.312 227.425 261.944 243.96 265.031 264.405C268.117 284.851 270.47 301.44 270.307 301.44C270.144 301.44 267.512 284.905 264.425 264.405C261.338 243.906 258.986 227.447 259.149 227.425Z" fill="#263238"/>
<g opacity="0.3">
<path opacity="0.3" d="M196.285 214.365C196.427 218.601 197.41 222.775 199.185 226.674C200.455 225.203 201.864 223.656 203.844 223.221C206.244 222.687 208.678 224.07 210.414 225.769C210.113 224.071 209.395 222.46 208.317 221.064C207.779 220.378 207.078 219.817 206.27 219.426C205.462 219.035 204.568 218.824 203.658 218.809C202.751 218.829 201.877 219.131 201.175 219.668C200.472 220.204 199.981 220.945 199.779 221.772L196.437 214.441" fill="black"/>
</g>
<path d="M176.614 226.336C176.509 226.336 176.544 225.192 176.194 223.417C175.716 221.103 174.754 218.901 173.364 216.936C172.581 215.872 171.688 214.883 170.697 213.984C169.876 213.257 168.982 212.604 168.029 212.034C166.387 211.065 165.234 210.694 165.281 210.596C165.567 210.616 165.846 210.682 166.108 210.792C166.434 210.874 166.75 210.987 167.051 211.13C167.454 211.292 167.843 211.481 168.216 211.696C169.229 212.232 170.178 212.867 171.046 213.592C172.091 214.502 173.024 215.517 173.83 216.62C175.274 218.643 176.213 220.943 176.579 223.351C176.695 224.072 176.734 224.802 176.695 225.53C176.695 226.053 176.66 226.336 176.614 226.336Z" fill="#263238"/>
<path d="M244.227 148.661C243.562 142.829 240.573 137.444 235.855 133.579C231.137 129.714 225.036 127.651 218.765 127.802H217.472C203.553 128.891 196.775 140.557 198.335 153.53L202.156 199.17L203.775 201.022C207.41 205.198 212.419 208.132 218.023 209.367C223.627 210.602 229.511 210.07 234.757 207.851L233.686 193.168C233.686 193.168 247.034 190.903 246.848 178.376C246.766 172.298 245.508 159.859 244.227 148.661Z" fill="#FFBE9D"/>
<path d="M233.791 193.136C227.576 193.297 221.442 191.785 216.121 188.779C216.121 188.779 220.489 197.7 233.825 196.251L233.791 193.136Z" fill="#EB996E"/>
<path d="M239.988 158.966C240.001 159.431 239.822 159.883 239.488 160.228C239.154 160.573 238.69 160.784 238.194 160.817C237.951 160.84 237.706 160.817 237.473 160.75C237.239 160.683 237.023 160.573 236.835 160.427C236.648 160.282 236.493 160.102 236.38 159.9C236.268 159.697 236.199 159.476 236.179 159.249C236.163 158.783 236.341 158.329 236.675 157.984C237.01 157.638 237.475 157.428 237.972 157.397C238.216 157.373 238.461 157.395 238.695 157.461C238.929 157.528 239.146 157.637 239.334 157.783C239.522 157.93 239.677 158.11 239.789 158.313C239.901 158.516 239.969 158.738 239.988 158.966Z" fill="#263238"/>
<path d="M240.837 152.158C240.686 152.376 239.172 152.528 237.343 153.443C235.514 154.358 234.443 155.502 234.198 155.48C233.954 155.458 234.198 155.164 234.652 154.652C235.349 153.93 236.177 153.329 237.098 152.877C237.978 152.417 238.942 152.118 239.94 151.994C240.628 151.929 240.919 152.049 240.837 152.158Z" fill="#263238"/>
<path d="M220.654 159.913C220.676 160.381 220.5 160.837 220.164 161.184C219.828 161.531 219.359 161.74 218.86 161.765C218.617 161.789 218.371 161.767 218.137 161.701C217.903 161.634 217.686 161.525 217.498 161.379C217.31 161.232 217.156 161.052 217.043 160.849C216.931 160.646 216.864 160.424 216.845 160.196C216.829 159.73 217.007 159.277 217.341 158.931C217.676 158.586 218.141 158.375 218.639 158.345C218.882 158.321 219.127 158.342 219.361 158.409C219.595 158.475 219.812 158.585 220 158.731C220.188 158.877 220.343 159.057 220.455 159.26C220.567 159.463 220.635 159.685 220.654 159.913Z" fill="#263238"/>
<path d="M220.419 154.783C220.151 154.783 218.905 154.053 216.925 153.596C214.945 153.138 213.303 153.236 213.128 153.084C212.953 152.931 213.337 152.866 214.048 152.811C215.086 152.75 216.127 152.842 217.135 153.084C218.11 153.3 219.039 153.668 219.883 154.173C220.349 154.521 220.489 154.761 220.419 154.783Z" fill="#263238"/>
<path d="M228.433 169.738C229.513 169.401 230.631 169.186 231.765 169.096C232.289 169.096 232.778 168.921 232.859 168.584C232.892 168.079 232.758 167.577 232.475 167.146L230.81 163.431C228.48 158.159 226.826 153.813 227.059 153.737C227.292 153.661 229.389 157.854 231.636 163.126C232.196 164.434 232.731 165.675 233.232 166.863C233.576 167.447 233.692 168.125 233.558 168.78C233.486 168.955 233.372 169.113 233.224 169.242C233.077 169.37 232.901 169.465 232.708 169.52C232.421 169.604 232.123 169.652 231.823 169.662C230.701 169.823 229.562 169.849 228.433 169.738Z" fill="#263238"/>
<path d="M220.419 147.354C220.186 147.866 218.148 147.529 215.76 147.681C213.372 147.834 211.346 148.378 211.101 147.888C210.961 147.659 211.334 147.18 212.138 146.712C213.219 146.136 214.426 145.8 215.668 145.728C216.91 145.656 218.152 145.851 219.301 146.298C220.07 146.679 220.489 147.104 220.419 147.354Z" fill="#263238"/>
<path d="M240.792 147.779C240.337 148.226 238.567 147.779 236.447 147.779C234.327 147.779 232.522 148.117 232.103 147.659C231.916 147.441 232.196 146.995 232.976 146.57C234.052 146.042 235.256 145.783 236.47 145.818C237.695 145.81 238.9 146.103 239.965 146.668C240.733 147.115 240.99 147.572 240.792 147.779Z" fill="#263238"/>
<path d="M248.13 137.529C248.012 136.957 247.674 136.446 247.181 136.091C246.687 135.735 246.072 135.561 245.451 135.601C246.12 135.423 246.746 135.123 247.291 134.719C247.563 134.514 247.767 134.242 247.88 133.934C247.993 133.625 248.011 133.293 247.932 132.976C247.582 132.007 246.255 131.8 245.206 131.527C243.83 131.153 242.61 130.393 241.712 129.349C240.442 127.846 239.953 125.885 238.847 124.262C238.132 123.214 237.175 122.33 236.047 121.673C234.918 121.017 233.647 120.606 232.326 120.47C231.005 120.334 229.668 120.477 228.414 120.888C227.16 121.3 226.02 121.968 225.079 122.846C224.051 121.858 222.786 121.114 221.389 120.675C219.992 120.236 218.503 120.116 217.046 120.324C215.589 120.531 214.206 121.061 213.012 121.869C211.818 122.678 210.848 123.741 210.182 124.97C208.395 124.273 206.441 124.038 204.524 124.29C202.607 124.542 200.797 125.271 199.285 126.402C197.773 127.532 196.613 129.022 195.928 130.715C195.242 132.408 195.056 134.242 195.389 136.026L203.729 140.808C203.797 140.215 203.998 139.642 204.32 139.127C204.642 138.612 205.078 138.167 205.597 137.821C206.117 137.475 206.709 137.236 207.335 137.12C207.96 137.004 208.605 137.013 209.227 137.148C211.743 137.834 213.35 140.557 215.959 140.742C217.997 140.884 219.733 139.414 221.701 138.923C224.089 138.324 226.617 139.217 228.771 140.35C230.926 141.483 232.988 142.899 235.387 143.466C238.253 144.003 241.228 143.671 243.878 142.518C245.055 142.132 246.128 141.511 247.023 140.699C247.465 140.291 247.795 139.791 247.988 139.239C248.18 138.688 248.229 138.102 248.13 137.529Z" fill="#263238"/>
<path d="M205.139 137.126L243.343 136.93C241.964 134.529 239.961 132.491 237.519 131.005C232.446 127.538 226.331 125.658 220.048 125.635C213.816 125.635 201.353 133.118 196.962 137.246C193.468 140.514 193.561 143.335 193.561 143.335C193.118 147.975 196.042 153.138 197.288 157.68C197.917 160.011 199.233 167.07 199.233 167.07C201.33 167.015 202.064 165.425 201.691 163.486L201.074 155.861C203.135 154.253 204.579 152.06 205.187 149.614C205.794 147.169 205.532 144.604 204.44 142.311C203.916 141.636 202.658 138.488 205.139 137.126Z" fill="#263238"/>
<path d="M200.526 155.36C198.581 149.042 196.787 142.289 198.86 135.971H197.696L197.23 136.287C196.153 135.949 194.988 135.94 193.906 136.262C192.823 136.584 191.878 137.221 191.208 138.079C190.539 138.937 190.179 139.973 190.181 141.035C190.183 142.098 190.547 143.132 191.22 143.988C190.084 143.979 188.983 144.358 188.126 145.054C187.268 145.75 186.711 146.715 186.561 147.768C186.564 149.235 186.995 150.673 187.807 151.929C188.62 153.188 189.118 154.603 189.263 156.068C189.312 156.798 189.084 157.52 188.619 158.108C188.155 158.695 187.484 159.111 186.724 159.281C187.092 160.025 187.722 160.626 188.51 160.985C189.297 161.345 190.192 161.439 191.045 161.253C190.501 162.495 189.592 163.567 188.424 164.346C190.917 165.937 194.33 165.436 197.032 164.161C198.708 163.531 200.077 162.344 200.875 160.828C201.621 159.074 201.062 157.147 200.526 155.36Z" fill="#263238"/>
<path d="M199.896 162.734C199.663 162.647 190.578 160.414 191.149 168.965C191.72 177.516 200.758 175.261 200.758 175.01C200.758 174.76 199.896 162.734 199.896 162.734Z" fill="#FFBE9D"/>
<path d="M198.569 171.906C198.569 171.906 198.418 172.015 198.15 172.145C197.788 172.313 197.371 172.345 196.985 172.233C195.995 171.949 195.098 170.566 194.958 169.019C194.888 168.28 194.995 167.536 195.273 166.841C195.347 166.566 195.492 166.312 195.695 166.101C195.898 165.891 196.153 165.729 196.438 165.632C196.618 165.579 196.813 165.586 196.989 165.652C197.165 165.717 197.312 165.837 197.404 165.991C197.544 166.22 197.486 166.394 197.544 166.416C197.602 166.438 197.731 166.253 197.637 165.904C197.562 165.701 197.425 165.522 197.241 165.392C197.112 165.308 196.966 165.249 196.812 165.219C196.658 165.189 196.499 165.189 196.344 165.218C195.974 165.309 195.634 165.487 195.357 165.734C195.079 165.982 194.874 166.292 194.76 166.634C194.424 167.399 194.285 168.227 194.353 169.052C194.527 170.773 195.517 172.32 196.915 172.625C197.163 172.676 197.42 172.675 197.668 172.622C197.916 172.569 198.148 172.466 198.348 172.32C198.569 172.113 198.604 171.917 198.569 171.906Z" fill="#EB996E"/>
<path d="M190.404 155.643C190.404 155.643 190.147 155.317 190.229 154.641C190.326 154.183 190.53 153.751 190.826 153.374C191.122 152.998 191.503 152.687 191.941 152.463C193.253 151.878 194.681 151.556 196.134 151.515C196.947 151.515 197.749 151.336 198.473 150.991C199.198 150.647 199.825 150.147 200.304 149.533C201.065 148.148 201.319 146.567 201.026 145.034C200.805 143.596 200.397 142.3 200.199 141.178C199.83 139.976 199.851 138.699 200.258 137.507C200.266 138.709 200.41 139.907 200.688 141.08C200.945 142.169 201.399 143.444 201.679 144.958C202.03 146.633 201.759 148.37 200.91 149.881C200.405 150.662 199.639 151.267 198.732 151.602C197.919 151.884 197.068 152.06 196.204 152.125C194.827 152.133 193.463 152.384 192.186 152.866C191.786 153.058 191.43 153.323 191.141 153.644C190.851 153.966 190.632 154.338 190.497 154.739C190.445 155.038 190.413 155.34 190.404 155.643Z" fill="#455A64"/>
<path d="M188.191 151.929C188.191 151.929 187.993 151.689 187.911 151.156C187.817 150.403 187.976 149.641 188.365 148.977C188.633 148.505 189.002 148.09 189.449 147.757C189.971 147.39 190.571 147.131 191.207 146.995C191.825 146.871 192.414 146.642 192.943 146.319C193.177 146.124 193.361 145.881 193.48 145.609C193.599 145.337 193.65 145.044 193.63 144.751C193.63 144.108 193.549 143.422 193.572 142.736C193.582 142.08 193.66 141.427 193.805 140.786C194.04 139.702 194.486 138.669 195.121 137.736C195.323 137.394 195.613 137.104 195.965 136.893C196.317 136.682 196.719 136.556 197.136 136.527C197.742 136.527 197.998 136.788 197.975 136.81C197.951 136.832 197.672 136.712 197.159 136.81C196.809 136.88 196.481 137.024 196.2 137.232C195.919 137.44 195.694 137.706 195.54 138.008C195.015 138.922 194.645 139.907 194.446 140.927C194.333 141.532 194.274 142.144 194.271 142.757C194.271 143.389 194.376 144.064 194.341 144.805C194.358 145.193 194.279 145.579 194.112 145.934C193.944 146.289 193.692 146.603 193.374 146.853C192.773 147.229 192.094 147.485 191.382 147.605C190.852 147.689 190.347 147.879 189.901 148.161C189.455 148.442 189.078 148.81 188.796 149.238C188.318 150.061 188.107 150.996 188.191 151.929Z" fill="#455A64"/>
<path d="M241.723 129.349C241.781 129.349 241.036 129.817 239.836 129.294C239.161 128.952 238.57 128.481 238.101 127.911C237.523 127.203 236.803 126.607 235.981 126.157C234.911 125.595 233.69 125.336 232.466 125.411C231.241 125.487 230.067 125.893 229.086 126.582C227.921 127.345 226.954 128.423 225.591 129.316C224.898 129.797 224.104 130.135 223.262 130.307C222.39 130.45 221.493 130.371 220.664 130.079C219.01 129.523 217.706 128.575 216.285 128.096C214.914 127.604 213.456 127.356 211.987 127.366C209.457 127.363 206.998 128.149 204.998 129.599C203.663 130.575 202.553 131.794 201.737 133.183C201.166 134.174 200.957 134.784 200.898 134.762C200.84 134.741 200.898 134.599 200.992 134.305C201.123 133.881 201.287 133.466 201.481 133.063C202.233 131.58 203.327 130.271 204.684 129.229C206.728 127.666 209.277 126.795 211.917 126.756C213.471 126.719 215.019 126.967 216.471 127.486C218.009 128.009 219.336 128.957 220.839 129.447C221.551 129.703 222.324 129.775 223.075 129.654C223.805 129.498 224.491 129.201 225.09 128.782C226.313 127.965 227.338 126.887 228.585 126.081C229.737 125.274 231.14 124.842 232.58 124.85C233.808 124.859 235.012 125.166 236.074 125.743C236.925 126.251 237.664 126.905 238.252 127.671C238.66 128.231 239.188 128.706 239.801 129.066C240.379 129.387 241.067 129.489 241.723 129.349Z" fill="#455A64"/>
<path d="M223.355 171.982C223.646 171.982 223.972 173.747 225.882 174.782C227.792 175.816 229.831 175.293 229.9 175.544C229.97 175.795 229.493 175.98 228.619 176.132C227.478 176.33 226.298 176.145 225.288 175.609C224.321 175.086 223.604 174.236 223.285 173.235C223.075 172.483 223.215 171.993 223.355 171.982Z" fill="#263238"/>
<path d="M343.885 342.178C340.339 339.329 335.738 337.897 331.073 338.191L323.199 361.578C328.965 361.817 334.719 364.595 340.286 363.168C342.51 362.527 344.491 361.304 345.995 359.644C347.5 357.984 348.465 355.957 348.777 353.8C349.02 351.638 348.702 349.453 347.85 347.43C346.999 345.407 345.639 343.606 343.885 342.178Z" fill="#92E3A9"/>
<path d="M331.165 337.658C331.165 337.472 332.016 337.32 333.495 337.331C335.696 337.369 337.874 337.755 339.936 338.475C343.087 339.623 345.814 341.602 347.786 344.171C348.991 345.695 349.88 347.417 350.407 349.247C350.977 351.25 351.041 353.35 350.593 355.38C350.16 357.437 349.178 359.359 347.74 360.968C346.362 362.433 344.617 363.556 342.661 364.235C339.484 365.286 336.057 365.494 332.761 364.835C330.64 364.446 328.57 363.843 326.588 363.037C325.202 362.482 324.468 362.068 324.538 361.883C324.608 361.697 325.446 361.752 326.867 361.981C328.288 362.209 330.443 362.634 333.006 362.852C335.912 363.153 338.852 362.779 341.567 361.763C343.055 361.174 344.372 360.263 345.41 359.105C346.499 357.838 347.242 356.343 347.577 354.748C347.897 353.167 347.873 351.542 347.506 349.97C347.14 348.398 346.439 346.911 345.445 345.598C343.84 343.325 341.633 341.479 339.039 340.239C337.201 339.428 335.276 338.8 333.297 338.366C331.957 338.082 331.142 337.854 331.165 337.658Z" fill="#F5F5F5"/>
<path d="M258.216 425.397L241.094 470.263L300.671 490.469C302.395 485.023 275.71 463.891 275.71 463.891L287.94 435.571L258.216 425.397Z" fill="#92E3A9"/>
<g opacity="0.6">
<path opacity="0.6" d="M258.228 455.232C257.591 455.2 256.964 455.389 256.468 455.763C255.971 456.137 255.64 456.669 255.537 457.258C255.48 457.85 255.668 458.44 256.063 458.906C256.457 459.372 257.028 459.679 257.657 459.763C258.336 459.797 259.004 459.592 259.53 459.189C260.056 458.786 260.401 458.214 260.499 457.584C260.499 456.397 259.241 455.036 257.983 455.199" fill="white"/>
</g>
<path d="M241.094 470.263L242.829 465.743L299.413 486.853C299.413 486.853 301.65 488.824 300.671 490.469L241.094 470.263Z" fill="white"/>
<path d="M276.794 463.935C276.677 464.207 275.175 463.837 273.404 464.229C271.634 464.621 270.422 465.503 270.201 465.318C269.98 465.133 271.017 463.695 273.171 463.26C275.326 462.824 276.945 463.706 276.794 463.935Z" fill="#263238"/>
<path d="M282.153 468.477C282.153 468.76 280.674 468.793 279.241 469.566C277.808 470.34 277.051 471.505 276.76 471.396C276.469 471.287 276.888 469.686 278.694 468.695C280.499 467.704 282.153 468.216 282.153 468.477Z" fill="#263238"/>
<path d="M282.932 476.668C282.653 476.668 282.769 475.143 284.097 473.901C285.425 472.66 287.009 472.54 287.044 472.812C287.079 473.084 285.937 473.586 284.866 474.62C283.794 475.655 283.235 476.744 282.932 476.668Z" fill="#263238"/>
<path d="M278.809 457.192C278.587 457.399 277.399 456.571 275.722 456.103C274.045 455.635 272.566 455.7 272.507 455.417C272.449 455.134 274.045 454.578 276.002 455.145C277.958 455.711 279.042 457.029 278.809 457.192Z" fill="#263238"/>
<path d="M279.951 450.101C278.882 450.013 277.856 449.66 276.981 449.077C275.972 448.537 275.04 447.878 274.209 447.117C273.712 446.672 273.249 446.195 272.823 445.69C272.555 445.403 272.335 445.08 272.171 444.731C272.054 444.473 272.033 444.186 272.111 443.916C272.189 443.645 272.362 443.407 272.602 443.239C272.821 443.099 273.071 443.008 273.334 442.974C273.597 442.94 273.865 442.964 274.116 443.043C274.494 443.17 274.851 443.346 275.176 443.566C275.758 443.929 276.304 444.341 276.807 444.797C277.648 445.559 278.356 446.442 278.903 447.411C279.502 448.259 279.807 449.259 279.777 450.276C279.614 450.276 279.264 449.241 278.251 447.77C277.649 446.924 276.937 446.152 276.131 445.472C275.654 445.072 275.144 444.708 274.605 444.383C274.034 444.012 273.499 443.827 273.242 444.034C272.986 444.241 273.114 444.154 273.184 444.372C273.305 444.628 273.466 444.867 273.662 445.08C274.043 445.563 274.46 446.022 274.908 446.452C275.664 447.197 276.495 447.872 277.389 448.467C278.926 449.502 280.021 449.96 279.951 450.101Z" fill="#263238"/>
<path d="M279.427 450.385C279.175 449.397 279.265 448.359 279.684 447.422C280.037 446.372 280.576 445.385 281.279 444.503C281.702 443.984 282.173 443.503 282.689 443.065C282.996 442.753 283.382 442.519 283.812 442.386C284.242 442.253 284.701 442.224 285.146 442.302C285.41 442.4 285.638 442.566 285.805 442.78C285.972 442.994 286.07 443.247 286.09 443.511C286.112 443.877 286.08 444.243 285.997 444.601C285.813 445.485 285.443 446.326 284.907 447.074C284.371 447.822 283.68 448.463 282.875 448.958C281.151 450.047 279.812 449.916 279.824 449.818C279.835 449.72 280.988 449.47 282.433 448.38C283.254 447.755 283.922 446.971 284.389 446.082C284.661 445.565 284.853 445.015 284.96 444.448C285.1 443.827 285.042 443.261 284.785 443.25C284.523 443.241 284.262 443.285 284.02 443.381C283.778 443.478 283.563 443.622 283.388 443.805C282.905 444.188 282.46 444.611 282.06 445.069C281.377 445.85 280.82 446.719 280.406 447.651C279.684 449.295 279.602 450.385 279.427 450.385Z" fill="#263238"/>
<path d="M200.503 305.579C191.465 305.775 182.892 306.963 176.661 313.095C168.403 321.232 158.199 332.811 157.617 340.838C156.755 352.82 164.501 356.415 170.15 359.356C172.649 360.62 175.464 361.233 178.303 361.131L282.759 360.391L286.032 343.845L218.476 328.268L221.283 304.49L200.503 305.579Z" fill="#263238"/>
<path d="M221.34 304.479L254.198 303.063C254.198 303.063 310.969 306.015 323.07 316.395C335.172 326.776 333.67 338.573 329.628 349.89C325.586 361.207 290.026 433.632 290.026 433.632C290.026 433.632 292.915 438.239 291.296 442.836C290.641 444.849 289.437 446.669 287.804 448.116C286.17 449.564 284.163 450.589 281.978 451.093L250.389 440.2C250.389 440.2 246.103 438.784 249.131 435.004C252.16 431.225 254.175 430.527 254.175 430.527V422.979C254.175 422.979 265.275 404.102 266.277 401.51C267.278 398.917 277.924 360.51 277.924 360.51L284.994 349.149C284.994 349.149 267.907 341.633 253.091 336.187L218.498 328.214L221.34 304.479Z" fill="#263238"/>
<path d="M274.641 438.871C273.685 438.351 272.759 437.784 271.868 437.172C267.406 434.468 262.379 432.682 257.123 431.933C256.02 431.833 254.924 431.68 253.838 431.475C254.946 431.355 256.066 431.374 257.169 431.53C262.557 432.068 267.705 433.899 272.113 436.845C273.047 437.414 273.897 438.095 274.641 438.871Z" fill="#455A64"/>
<path d="M290.423 433.686C289.734 433.158 289.119 432.551 288.594 431.878C287.522 430.713 286.101 429.057 284.622 427.162C283.143 425.266 281.862 423.513 280.988 422.217C280.467 421.538 280.03 420.808 279.684 420.038C280.309 420.63 280.864 421.284 281.338 421.988L285.111 426.824C286.521 428.61 287.814 430.223 288.932 431.628C289.507 432.261 290.007 432.952 290.423 433.686Z" fill="#455A64"/>
<path d="M301.954 338.823C301.954 338.91 300.789 339.15 298.96 339.716C294.172 341.194 289.833 343.727 286.311 347.102C285.623 347.843 284.896 348.552 284.133 349.226C284.625 348.346 285.253 347.539 285.996 346.829C287.691 345.04 289.652 343.488 291.82 342.222C293.987 340.946 296.341 339.974 298.809 339.335C299.823 339.017 300.884 338.844 301.954 338.823Z" fill="#455A64"/>
<path d="M269.689 390.105C269.703 389.887 269.746 389.671 269.818 389.463L270.307 387.665L272.194 381.075L278.658 359.388C279.974 355.151 281.092 351.121 282.362 347.461C283.702 344.281 285.728 341.392 288.314 338.976C290.021 337.339 291.911 335.878 293.951 334.619C294.685 334.183 295.256 333.856 295.664 333.66C295.859 333.544 296.066 333.446 296.281 333.366C296.281 333.366 295.489 333.867 294.091 334.793C292.118 336.11 290.285 337.602 288.617 339.248C286.123 341.655 284.174 344.507 282.886 347.635C281.721 351.241 280.557 355.325 279.241 359.541L272.613 381.173C271.751 383.886 271.041 386.097 270.528 387.709C270.283 388.428 270.097 389.016 269.934 389.473C269.883 389.693 269.801 389.906 269.689 390.105Z" fill="#455A64"/>
<path d="M240.629 334.782C240.454 334.782 239.767 329.053 239.079 321.951C238.392 314.849 237.915 309.076 238.148 309.065C238.381 309.054 238.998 314.794 239.685 321.896C240.372 328.998 240.792 334.771 240.629 334.782Z" fill="#455A64"/>
<path d="M185.931 350.173C185.838 350.173 185.337 349.291 184.301 347.929C182.962 346.158 181.358 344.577 179.537 343.235C177.701 341.909 175.674 340.835 173.515 340.043C171.849 339.433 170.766 339.204 170.789 339.106C171.77 339.149 172.737 339.337 173.655 339.662C178.21 341.066 182.101 343.908 184.662 347.701C185.227 348.454 185.656 349.289 185.931 350.173Z" fill="#455A64"/>
<path d="M206.058 329.26C206.058 329.347 204.613 328.519 202.202 327.484C195.876 324.797 188.86 323.859 181.982 324.783C179.361 325.131 177.765 325.567 177.742 325.469C178.081 325.29 178.446 325.158 178.825 325.077C179.838 324.784 180.869 324.551 181.912 324.38C188.868 323.238 196.033 324.2 202.365 327.125C203.315 327.563 204.233 328.058 205.114 328.606C205.46 328.782 205.777 329.002 206.058 329.26Z" fill="#455A64"/>
<path d="M284.751 343.812C284.47 343.799 284.193 343.755 283.924 343.681L281.594 343.213L273.091 341.459C265.905 339.956 255.958 337.93 244.927 335.893C233.897 333.856 223.88 332.168 216.624 331.002L208.016 329.619L205.687 329.238C205.411 329.207 205.141 329.145 204.883 329.052C205.16 329.06 205.436 329.082 205.71 329.118L208.039 329.401C210.078 329.662 213.024 330.076 216.67 330.61C223.95 331.699 233.99 333.29 245.032 335.338C256.074 337.385 265.998 339.466 273.173 341.067C276.749 341.873 279.649 342.548 281.641 343.039L283.97 343.605C284.236 343.652 284.498 343.721 284.751 343.812Z" fill="#455A64"/>
<path d="M218.534 331.057C218.417 331.057 218.173 329.771 217.09 327.941C216.456 326.885 215.672 325.914 214.76 325.055C213.61 323.995 212.388 323.006 211.103 322.092C208.734 320.456 206.23 318.999 203.613 317.735C202.506 317.243 201.44 316.675 200.422 316.036C201.594 316.382 202.729 316.831 203.811 317.376C206.514 318.548 209.082 319.975 211.475 321.635C212.778 322.564 214.008 323.58 215.156 324.674C216.092 325.58 216.877 326.611 217.486 327.734C217.904 328.494 218.221 329.299 218.429 330.131C218.525 330.431 218.561 330.745 218.534 331.057Z" fill="#455A64"/>
<path d="M334.882 345.816C335.01 345.947 333.263 347.592 331.9 350.108C330.537 352.624 330.095 354.89 329.92 354.857C329.916 353.096 330.414 351.367 331.364 349.846C332.136 348.237 333.35 346.846 334.882 345.816Z" fill="#263238"/>
<g opacity="0.3">
<path opacity="0.3" d="M260.115 234.211L267.593 283.467L267.966 284.252C269.719 267.223 267.025 250.051 260.115 234.211Z" fill="black"/>
</g>
<path d="M300.381 262.51L276.073 302.246L216.169 303.466L216.018 306.004L274.023 305.601L275.863 305.536L337.106 305.656L349.488 285.689L365.305 264.493C365.534 264.178 365.667 263.811 365.689 263.431C365.711 263.051 365.623 262.673 365.432 262.337C365.242 262.001 364.957 261.72 364.608 261.524C364.259 261.328 363.86 261.224 363.453 261.225L302.315 261.443C301.921 261.445 301.534 261.546 301.194 261.733C300.855 261.921 300.574 262.189 300.381 262.51Z" fill="#E0E0E0"/>
<path d="M349.487 285.722C349.487 285.722 352.632 288.423 352.143 290.711C351.654 292.998 351.805 294.708 349.487 294.861C349.531 295.698 349.228 296.518 348.643 297.153C348.058 297.787 347.234 298.187 346.343 298.27C346.343 298.27 347.053 301.865 342.58 302.486C342.58 302.486 341.206 306.331 338.387 305.394C336.763 304.877 335.201 304.202 333.728 303.379L332.901 301.985C332.901 301.985 328.743 300.525 329.768 298.336C330.397 297.007 332.54 296.658 332.54 296.658C332.293 296.112 332.189 295.52 332.236 294.929C332.282 294.338 332.478 293.766 332.808 293.26C333.798 292.007 337.036 293.042 337.036 293.042C336.969 291.969 337.335 290.912 338.061 290.079C339.226 288.848 344.328 292.17 344.328 292.17L347.135 289.033L349.487 285.722Z" fill="#FFBE9D"/>
<path d="M342.579 302.486C340.763 301.762 339.031 300.868 337.408 299.817C335.68 298.925 334.056 297.866 332.562 296.658C334.377 297.388 336.11 298.286 337.734 299.338C339.458 300.232 341.082 301.287 342.579 302.486Z" fill="#EB996E"/>
<path d="M346.342 298.27C344.652 297.649 343.042 296.853 341.543 295.896C339.94 295.102 338.436 294.144 337.059 293.042C338.751 293.657 340.361 294.454 341.857 295.416C343.46 296.21 344.964 297.167 346.342 298.27Z" fill="#EB996E"/>
<path d="M341.217 290.384C341.31 290.221 343.232 291.168 345.468 292.497C346.854 293.246 348.189 294.075 349.463 294.981C349.382 295.166 347.378 294.316 345.142 292.976C343.74 292.244 342.424 291.375 341.217 290.384Z" fill="#EB996E"/>
<path d="M365.304 262.75C365.208 262.764 365.109 262.764 365.013 262.75H364.151H360.843L348.683 262.837L308.557 262.924H305.633C305.203 262.886 304.769 262.956 304.377 263.129C303.986 263.301 303.651 263.569 303.409 263.904C302.477 265.458 301.568 266.991 300.683 268.501L295.512 277.215L286.741 291.953C284.248 296.114 282.21 299.49 280.777 301.876C280.09 302.965 279.531 303.902 279.135 304.555L278.692 305.241L278.529 305.47C278.529 305.47 278.529 305.372 278.634 305.209L279.03 304.49L280.579 301.767L286.403 291.757L295.069 276.954C296.7 274.176 298.423 271.257 300.194 268.24L302.931 263.61C303.23 263.196 303.64 262.863 304.121 262.645C304.602 262.426 305.135 262.331 305.668 262.368H308.592L348.718 262.445L360.878 262.543L364.186 262.597H365.048C365.142 262.634 365.228 262.686 365.304 262.75Z" fill="#263238"/>
<path d="M322.208 282.738C321.926 283.12 321.767 283.571 321.751 284.036C321.736 284.501 321.864 284.96 322.12 285.359C322.377 285.757 322.751 286.078 323.197 286.283C323.644 286.488 324.144 286.568 324.638 286.513C325.132 286.459 325.599 286.272 325.983 285.976C326.366 285.68 326.65 285.287 326.8 284.843C326.951 284.4 326.961 283.925 326.831 283.476C326.7 283.028 326.434 282.624 326.064 282.313C325.491 281.895 324.764 281.705 324.043 281.784C323.321 281.864 322.662 282.206 322.208 282.738Z" fill="white"/>
<g opacity="0.3">
<path opacity="0.3" d="M152.153 267.39C151.641 267.586 151.047 267.913 151.047 268.479C151.065 268.69 151.159 268.888 151.314 269.042C151.468 269.197 151.674 269.298 151.897 269.329C152.752 269.215 153.588 269.007 154.39 268.708C160.691 267.412 165.874 268.653 171.861 270.886L172.059 270.701C169.683 265.876 158.932 264.808 152.153 267.39Z" fill="black"/>
</g>
<path d="M476.667 488.509C476.667 488.661 371.315 488.792 241.385 488.792C111.456 488.792 6.10352 488.617 6.10352 488.509C6.10352 488.4 111.433 488.225 241.385 488.225C371.338 488.225 476.667 488.302 476.667 488.509Z" fill="#263238"/>
<path d="M119.575 141.266C119.773 141.451 158.455 129.022 158.455 129.022L143.546 97.1072L109.15 109.448L128.089 119.622L119.575 141.266Z" fill="#455A64"/>
<path d="M137.722 106.714V63.264C137.722 63.264 191.079 54.136 229.528 54.6807C267.977 55.2253 307.567 61.1181 307.567 61.1181V102.837C307.567 102.837 187.061 92.7719 137.722 106.714Z" fill="#455A64"/>
<path d="M137.443 106.758L158.409 129.208V102.837C158.409 102.837 140.879 104.797 137.443 106.758Z" fill="#263238"/>
<path d="M137.722 63.2532C137.896 63.2532 137.966 73.0565 137.896 85.0382C137.826 97.02 137.617 106.823 137.454 106.823C137.291 106.823 137.209 97.0854 137.279 85.0382C137.349 72.9911 137.547 63.2532 137.722 63.2532Z" fill="#263238"/>
<path d="M325.622 137.932C325.424 138.118 286.742 125.689 286.742 125.689L301.616 93.7632L336.047 106.083L317.096 116.256L325.622 137.932Z" fill="#455A64"/>
<path d="M307.778 103.425L286.812 125.874V101.41C293.842 101.635 300.847 102.308 307.778 103.425Z" fill="#263238"/>
<path d="M307.545 61.1182C307.708 61.1182 307.894 70.5838 307.952 82.2715C308.011 93.9592 307.952 103.425 307.754 103.425C307.556 103.425 307.405 93.9592 307.347 82.2715C307.289 70.5838 307.37 61.1182 307.545 61.1182Z" fill="#263238"/>
<path d="M167.808 82.315C167.698 81.0641 167.985 79.8106 168.633 78.7113C169.281 77.6121 170.261 76.7158 171.45 76.1346C172.64 75.5533 173.986 75.313 175.321 75.4436C176.656 75.5742 177.92 76.0699 178.955 76.8687L177.324 78.6987C176.886 78.324 176.363 78.0448 175.796 77.8809C175.228 77.7171 174.628 77.6727 174.04 77.751C172.996 77.8868 172.052 78.4049 171.416 79.1914C170.781 79.9778 170.505 80.9682 170.65 81.9446C170.796 82.9211 171.35 83.8036 172.191 84.398C173.032 84.9925 174.091 85.2502 175.135 85.1144C175.727 85.0416 176.294 84.8452 176.794 84.5397C177.294 84.2343 177.714 83.8276 178.023 83.3498L180.073 84.6896C179.314 85.7229 178.245 86.5236 177.001 86.9916C175.757 87.4596 174.394 87.5741 173.081 87.3206C171.767 87.0671 170.563 86.4569 169.619 85.5665C168.675 84.6761 168.033 83.5451 167.773 82.315H167.808Z" fill="white"/>
<path d="M180.514 80.6813C180.298 79.4237 180.49 78.1342 181.065 76.9797C181.641 75.8253 182.574 74.8591 183.744 74.2063C184.913 73.5535 186.266 73.2441 187.626 73.3181C188.985 73.3922 190.29 73.8464 191.371 74.6218C192.451 75.3973 193.258 76.4582 193.687 77.6674C194.115 78.8765 194.146 80.1781 193.774 81.4037C193.403 82.6292 192.646 83.7222 191.603 84.5411C190.56 85.36 189.277 85.8671 187.922 85.9968C187.059 86.1256 186.177 86.0884 185.33 85.8877C184.483 85.687 183.689 85.3269 182.996 84.8295C182.302 84.332 181.725 83.7076 181.298 82.9944C180.872 82.2811 180.605 81.4941 180.514 80.6813ZM191.125 79.6574C191.031 78.9506 190.716 78.2856 190.219 77.7452C189.723 77.2048 189.068 76.813 188.335 76.6186C187.602 76.4243 186.825 76.436 186.099 76.6523C185.373 76.8686 184.732 77.2799 184.254 77.8349C183.777 78.39 183.485 79.0641 183.415 79.7734C183.344 80.4826 183.499 81.1955 183.859 81.8231C184.219 82.4508 184.769 82.9654 185.44 83.3028C186.111 83.6401 186.873 83.7853 187.631 83.7203C188.154 83.6881 188.664 83.5547 189.129 83.3286C189.594 83.1024 190.004 82.7884 190.332 82.4065C190.661 82.0246 190.901 81.583 191.038 81.1098C191.174 80.6365 191.204 80.142 191.125 79.6574Z" fill="white"/>
<path d="M207.97 84.3084L207.469 77.359L204.219 83.3063L202.938 83.3825L198.919 78.0234L199.397 84.8204L196.706 84.9837L195.961 73.405L198.29 73.2634L203.415 80.1801L207.48 72.7187L209.81 72.5771L210.649 84.145L207.97 84.3084Z" fill="white"/>
<path d="M224.008 76.3786C224.078 78.971 222.051 80.6267 218.743 80.7356L216.239 80.801L216.344 84.0034L213.467 84.0796L213.117 72.4137L218.487 72.2721C221.806 72.2286 223.915 73.7862 224.008 76.3786ZM221.096 76.4549C221.096 75.1804 220.152 74.4615 218.394 74.5051L216.064 74.5705L216.192 78.6007L218.522 78.5353C220.269 78.4918 221.131 77.7184 221.096 76.4549Z" fill="white"/>
<path d="M226.244 72.1631H229.109V81.5742H235.329V83.7528H226.244V72.1631Z" fill="white"/>
<path d="M246.453 81.912V84.0905L236.844 83.8291L237.205 72.2285L246.523 72.4899L246.453 74.6684L239.93 74.4833L239.86 77.0103L245.614 77.1628L245.545 79.2542L239.791 79.0908L239.709 81.7813L246.453 81.912Z" fill="white"/>
<path d="M251.763 74.9191L247.803 74.7012L247.943 72.5227L258.728 73.1327L258.588 75.3112L254.628 75.0824L254.023 84.4827L251.157 84.3193L251.763 74.9191Z" fill="white"/>
<path d="M269.177 83.5023L268.967 85.6808L259.393 84.853L260.557 73.3069L269.875 74.1129L269.666 76.2914L263.166 75.6815L262.922 78.1976L268.652 78.6878L268.454 80.7683L262.712 80.2781L262.456 82.9468L269.177 83.5023Z" fill="white"/>
<path d="M272.765 74.3635L278.345 75.0606C282.363 75.5617 284.797 78.165 284.308 81.5962C283.819 85.0273 280.721 87.0424 276.702 86.4978L271.123 85.8007L272.765 74.3635ZM276.877 84.352C277.384 84.4281 277.902 84.4084 278.401 84.2941C278.899 84.1799 279.369 83.9733 279.781 83.6867C280.193 83.4 280.539 83.0391 280.799 82.6252C281.06 82.2113 281.229 81.7528 281.296 81.2769C281.364 80.8009 281.329 80.317 281.193 79.8539C281.058 79.3908 280.824 78.9577 280.507 78.5803C280.19 78.2029 279.794 77.8889 279.345 77.6566C278.896 77.4244 278.401 77.2788 277.89 77.2283L275.293 76.9015L274.28 84.0252L276.877 84.352Z" fill="white"/>
<path d="M331.41 65.072L334.462 68.416L343.058 65.072L340.542 61.5537L331.41 65.072Z" fill="#455A64"/>
<path d="M327.473 49.1581C327.473 49.9853 327.21 50.794 326.719 51.4819C326.227 52.1697 325.529 52.7058 324.712 53.0224C323.894 53.339 322.995 53.4218 322.127 53.2604C321.26 53.0991 320.463 52.7007 319.837 52.1157C319.212 51.5308 318.786 50.7855 318.613 49.9741C318.441 49.1627 318.529 48.3217 318.868 47.5574C319.206 46.7931 319.78 46.1399 320.515 45.6803C321.251 45.2207 322.115 44.9753 323 44.9753C324.185 44.9782 325.321 45.4198 326.159 46.2036C326.997 46.9874 327.47 48.0496 327.473 49.1581Z" fill="#92E3A9"/>
<path d="M227.281 111.551C227.279 111.965 227.145 112.37 226.896 112.713C226.647 113.056 226.295 113.322 225.884 113.478C225.474 113.633 225.022 113.671 224.589 113.587C224.155 113.502 223.757 113.299 223.447 113.003C223.137 112.706 222.928 112.331 222.847 111.923C222.765 111.516 222.815 111.095 222.99 110.714C223.165 110.333 223.457 110.009 223.829 109.784C224.201 109.559 224.637 109.442 225.08 109.448C225.669 109.457 226.231 109.682 226.643 110.076C227.055 110.47 227.284 111 227.281 111.551Z" fill="#92E3A9"/>
<path d="M123.093 80.1146C123.092 80.4301 122.992 80.7384 122.804 81.0004C122.616 81.2624 122.349 81.4662 122.037 81.5859C121.725 81.7056 121.382 81.7358 121.052 81.6726C120.721 81.6095 120.418 81.4558 120.181 81.2312C119.944 81.0066 119.784 80.7212 119.721 80.4113C119.658 80.1014 119.695 79.781 119.828 79.4908C119.96 79.2006 120.182 78.9538 120.464 78.7817C120.747 78.6096 121.078 78.52 121.415 78.5243C121.862 78.53 122.289 78.7001 122.603 78.9977C122.917 79.2954 123.093 79.6966 123.093 80.1146Z" fill="#92E3A9"/>
<path d="M116.779 62.6103L121.788 62.8936L124.164 53.6785L119.482 53.8636L116.779 62.6103Z" fill="#455A64"/>
<path d="M273.324 136.168L275.013 140.59L285.007 139.022L282.992 135.068L273.324 136.168Z" fill="#92E3A9"/>
<path d="M172.245 110.646L169.158 114.35L175.925 121.397L178.418 117.683L172.245 110.646Z" fill="#455A64"/>
<path d="M160.284 23.6477L172.106 34.9215L188.75 29.0395L189.414 32.9064L182.204 46.7072L188.855 57.0116L188.296 60.0941L172.188 57.5562L162.66 67.3268L160.423 65.7474L158.455 53.319L143.43 45.9992L142.766 43.1562L157.896 39.2894L160.284 23.6477Z" fill="#92E3A9"/>
<g opacity="0.3">
<path opacity="0.3" d="M160.284 23.6477L172.106 34.9215L188.75 29.0395L189.414 32.9064L182.204 46.7072L188.855 57.0116L188.296 60.0941L172.188 57.5562L162.66 67.3268L160.423 65.7474L158.455 53.319L143.43 45.9992L142.766 43.1562L157.896 39.2894L160.284 23.6477Z" fill="black"/>
</g>
<path d="M160.284 20.478L172.106 31.7627L188.75 29.0396L180.935 43.0474L188.855 57.0116L172.188 54.3974L160.423 65.7474L157.942 50.1166L142.766 43.1563L157.896 36.1197L160.284 20.478Z" fill="#92E3A9"/>
<path d="M282.875 23.6477L271.041 34.9215L254.396 29.0395L253.732 32.9064L260.942 46.7072L254.291 57.0116L254.851 60.0941L270.959 57.5562L280.487 67.3268L282.723 65.7474L284.692 53.319L299.717 45.9992L300.381 43.1562L285.251 39.2894L282.875 23.6477Z" fill="#92E3A9"/>
<g opacity="0.3">
<path opacity="0.3" d="M282.875 23.6477L271.041 34.9215L254.396 29.0395L253.732 32.9064L260.942 46.7072L254.291 57.0116L254.851 60.0941L270.959 57.5562L280.487 67.3268L282.723 65.7474L284.692 53.319L299.717 45.9992L300.381 43.1562L285.251 39.2894L282.875 23.6477Z" fill="black"/>
</g>
<path d="M282.874 20.478L271.04 31.7627L254.396 29.0396L262.211 43.0474L254.291 57.0116L270.959 54.3974L282.723 65.7474L285.204 50.1166L300.381 43.1563L285.25 36.1197L282.874 20.478Z" fill="#92E3A9"/>
<path d="M221.19 3.85596L231.032 21.8395L253.733 20.5869L252.965 25.5321L238.545 39.8122L242.447 54.7459L240.525 58.3078L221.9 49.4739L206.304 58.0137L204.219 55.2796L206.875 39.4092L191.523 25.1291L191.873 21.4365L211.907 22.101L221.19 3.85596Z" fill="#92E3A9"/>
<g opacity="0.3">
<path opacity="0.3" d="M221.19 3.85596L231.032 21.8395L253.733 20.5869L252.965 25.5321L238.545 39.8122L242.447 54.7459L240.525 58.3078L221.9 49.4739L206.304 58.0137L204.219 55.2796L206.875 39.4092L191.523 25.1291L191.873 21.4365L211.907 22.101L221.19 3.85596Z" fill="black"/>
</g>
<path d="M222.47 0L232.313 17.9727L253.733 20.5869L238.486 34.8997L242.446 54.7459L223.193 45.618L204.219 55.2796L207.561 35.3245L191.872 21.4365L213.199 18.2341L222.47 0Z" fill="#92E3A9"/>
<path d="M261.688 161.329L278.134 163.029C283.686 155.677 291.978 150.534 301.38 148.61C310.781 146.685 320.612 148.118 328.941 152.628C337.27 157.138 343.494 164.397 346.39 172.98C349.287 181.563 348.645 190.849 344.593 199.012C340.54 207.175 333.369 213.626 324.49 217.096C315.61 220.567 305.663 220.806 296.604 217.766C287.546 214.727 280.03 208.629 275.535 200.671C271.039 192.713 269.889 183.471 272.31 174.76L261.688 161.329Z" fill="#FAFAFA"/>
<path d="M261.688 161.33C262.328 162.136 265.659 166.253 272.462 174.695H272.217C272.225 174.677 272.238 174.661 272.253 174.648C272.269 174.635 272.288 174.626 272.308 174.621C272.328 174.615 272.349 174.614 272.37 174.618C272.39 174.621 272.41 174.629 272.427 174.64C272.454 174.655 272.475 174.678 272.488 174.706C272.5 174.733 272.503 174.764 272.496 174.793C270.829 180.903 270.918 187.318 272.753 193.386C273.292 195.207 274.005 196.979 274.884 198.68C275.35 199.551 275.793 200.445 276.294 201.327L278.029 203.908C283.571 211.421 291.955 216.688 301.487 218.646C306.764 219.731 312.228 219.753 317.515 218.711C323.088 217.577 328.325 215.309 332.854 212.067C337.598 208.698 341.412 204.317 343.978 199.29C346.635 194.178 347.944 188.546 347.798 182.864C347.629 177.428 346.156 172.098 343.489 167.266C340.98 162.685 337.425 158.677 333.076 155.524C325.241 149.861 315.381 147.225 305.529 148.16C301.366 148.628 297.303 149.678 293.474 151.276C287.382 153.908 282.134 157.987 278.25 163.105C278.238 163.126 278.219 163.143 278.196 163.152C278.173 163.162 278.147 163.165 278.122 163.159L261.688 161.33L278.157 162.887L278.017 162.952C281.888 157.765 287.162 153.63 293.299 150.971C297.147 149.313 301.244 148.218 305.448 147.725C315.434 146.736 325.445 149.381 333.402 155.11C337.827 158.3 341.442 162.365 343.99 167.015C346.713 171.917 348.214 177.332 348.381 182.853C348.534 188.624 347.208 194.346 344.514 199.541C341.902 204.645 338.025 209.093 333.204 212.514C328.6 215.8 323.28 218.098 317.619 219.245C312.239 220.303 306.678 220.27 301.313 219.147C291.679 217.161 283.213 211.822 277.633 204.213L275.886 201.599C275.385 200.706 274.942 199.791 274.465 198.909C273.589 197.185 272.879 195.392 272.345 193.55C270.518 187.416 270.47 180.938 272.205 174.782L272.485 174.88C272.463 174.911 272.43 174.934 272.391 174.945C272.352 174.955 272.311 174.951 272.275 174.934L261.688 161.33Z" fill="#263238"/>
<path d="M295.431 170.926C295.444 171.093 295.444 171.26 295.431 171.427C295.431 171.786 295.431 172.244 295.431 172.821C295.431 174.085 295.431 175.838 295.501 178.06C295.501 182.581 295.582 188.953 295.641 196.578L295.373 196.327H322.78C322.849 196.262 322.209 196.861 322.477 196.6V193.114C322.477 191.97 322.477 190.827 322.477 189.694V183.06C322.477 178.768 322.477 174.706 322.477 170.969L322.733 171.22L302.932 171.089L297.33 171.035H295.839H295.303H295.78H297.225L302.757 170.969L322.71 170.85H322.978V171.089C322.978 174.825 322.978 178.888 322.978 183.18V196.589C323.257 196.338 322.617 196.948 322.675 196.883H295.268H295V196.589C295 188.899 295.093 182.483 295.128 177.93C295.128 175.751 295.128 173.987 295.198 172.745C295.198 172.189 295.198 171.743 295.198 171.394C295.253 171.229 295.331 171.072 295.431 170.926Z" fill="#263238"/>
<path d="M319.879 175.163C320.275 175.457 316.594 180.424 311.644 186.263C310.665 187.428 309.699 188.539 308.802 189.53L308.219 190.195L307.567 189.639C303.281 186.034 300.381 183.267 300.637 182.984C300.893 182.701 304.259 184.988 308.697 188.43L307.451 188.539C308.301 187.45 309.233 186.361 310.223 185.206C315.161 179.368 319.494 174.88 319.879 175.163Z" fill="#92E3A9"/>
</svg>
